<svg xmlns="http://www.w3.org/2000/svg" xmlns:xlink="http://www.w3.org/1999/xlink" style="margin:auto;background:#ffffff;display:block;z-index:1;position:relative" width="780" height="505" preserveAspectRatio="xMidYMid" viewBox="0 0 780 505">
<g transform="translate(390,252.5) scale(1,1) translate(-390,-252.5)"><defs>
<linearGradient id="lg-0.4931700856376289" x1="0" x2="0" y1="0" y2="1">
  <stop stop-color="#380529" offset="0"></stop>
  <stop stop-color="#29243c" offset="1"></stop>
</linearGradient>
</defs>
<rect x="0" y="0" width="780" height="505" fill="url(#lg-0.4931700856376289)"></rect><g transform="translate(470.52754533153177 94.23627076318841) rotate(153.8370716236808) scale(0.46177930351479457)">
<path fill="#fbfaf5" d="M6.38-8.33C5.84-10.74,5-13.08,3.83-15.26c-0.85-1.58-1.98-4.16-4.16-3.86c-1.93,0.26-3.02,2.91-3.79,4.44 c-0.51,1-0.95,2.03-1.32,3.09c-0.37,1.06-0.47,2.86-1.16,3.72c-0.67,0.83-2.16,0.35-3.08,0.33c-1.36-0.03-2.71,0.04-4.06,0.21 c-1.72,0.22-4.81,0.42-5.85,2.03c-1.25,1.94,0.7,3.8,1.93,5.13c1.68,1.82,3.6,3.27,5.67,4.62c1.14,0.74,1.08,1.25,0.59,2.47 c-0.51,1.28-0.93,2.59-1.25,3.92c-0.44,1.86-1.34,5.14-0.4,6.93c1.16,2.23,3.65,1.11,5.37,0.35c2.37-1.05,4.49-2.47,6.49-4.1 c1.2-0.97,1.67-0.56,2.78,0.35c1.06,0.86,2.17,1.65,3.35,2.35c1.59,0.95,4.49,2.84,6.43,2.36c2.4-0.58,2-3.33,1.8-5.2 c-0.29-2.64-1.16-4.97-1.98-7.47c-0.5-1.54,0.7-1.87,1.83-2.64c1.09-0.73,2.12-1.54,3.09-2.42c1.41-1.28,4.24-3.58,3.84-5.73 c-0.45-2.42-4.05-2.66-6-2.93c-1.34-0.19-2.68-0.26-4.03-0.24C8.93-7.54,6.7-6.89,6.38-8.33z"></path>
</g><g transform="translate(176.589809667254 422.4758454296415) rotate(326.50219036218635) scale(0.4432668930208495)">
<path fill="#ffd391" d="M6.38-8.33C5.84-10.74,5-13.08,3.83-15.26c-0.85-1.58-1.98-4.16-4.16-3.86c-1.93,0.26-3.02,2.91-3.79,4.44 c-0.51,1-0.95,2.03-1.32,3.09c-0.37,1.06-0.47,2.86-1.16,3.72c-0.67,0.83-2.16,0.35-3.08,0.33c-1.36-0.03-2.71,0.04-4.06,0.21 c-1.72,0.22-4.81,0.42-5.85,2.03c-1.25,1.94,0.7,3.8,1.93,5.13c1.68,1.82,3.6,3.27,5.67,4.62c1.14,0.74,1.08,1.25,0.59,2.47 c-0.51,1.28-0.93,2.59-1.25,3.92c-0.44,1.86-1.34,5.14-0.4,6.93c1.16,2.23,3.65,1.11,5.37,0.35c2.37-1.05,4.49-2.47,6.49-4.1 c1.2-0.97,1.67-0.56,2.78,0.35c1.06,0.86,2.17,1.65,3.35,2.35c1.59,0.95,4.49,2.84,6.43,2.36c2.4-0.58,2-3.33,1.8-5.2 c-0.29-2.64-1.16-4.97-1.98-7.47c-0.5-1.54,0.7-1.87,1.83-2.64c1.09-0.73,2.12-1.54,3.09-2.42c1.41-1.28,4.24-3.58,3.84-5.73 c-0.45-2.42-4.05-2.66-6-2.93c-1.34-0.19-2.68-0.26-4.03-0.24C8.93-7.54,6.7-6.89,6.38-8.33z"></path>
</g><g transform="translate(22.402155047002662 135.884407404118) rotate(3.205678744116165) scale(0.4303215371125803)">
<path fill="#fbfaf5" d="M6.38-8.33C5.84-10.74,5-13.08,3.83-15.26c-0.85-1.58-1.98-4.16-4.16-3.86c-1.93,0.26-3.02,2.91-3.79,4.44 c-0.51,1-0.95,2.03-1.32,3.09c-0.37,1.06-0.47,2.86-1.16,3.72c-0.67,0.83-2.16,0.35-3.08,0.33c-1.36-0.03-2.71,0.04-4.06,0.21 c-1.72,0.22-4.81,0.42-5.85,2.03c-1.25,1.94,0.7,3.8,1.93,5.13c1.68,1.82,3.6,3.27,5.67,4.62c1.14,0.74,1.08,1.25,0.59,2.47 c-0.51,1.28-0.93,2.59-1.25,3.92c-0.44,1.86-1.34,5.14-0.4,6.93c1.16,2.23,3.65,1.11,5.37,0.35c2.37-1.05,4.49-2.47,6.49-4.1 c1.2-0.97,1.67-0.56,2.78,0.35c1.06,0.86,2.17,1.65,3.35,2.35c1.59,0.95,4.49,2.84,6.43,2.36c2.4-0.58,2-3.33,1.8-5.2 c-0.29-2.64-1.16-4.97-1.98-7.47c-0.5-1.54,0.7-1.87,1.83-2.64c1.09-0.73,2.12-1.54,3.09-2.42c1.41-1.28,4.24-3.58,3.84-5.73 c-0.45-2.42-4.05-2.66-6-2.93c-1.34-0.19-2.68-0.26-4.03-0.24C8.93-7.54,6.7-6.89,6.38-8.33z"></path>
</g><g transform="translate(345.2388817821636 115.19342144128377) rotate(327.05905908780045) scale(0.41909525995215763)">
<path fill="#fbfaf5" d="M6.38-8.33C5.84-10.74,5-13.08,3.83-15.26c-0.85-1.58-1.98-4.16-4.16-3.86c-1.93,0.26-3.02,2.91-3.79,4.44 c-0.51,1-0.95,2.03-1.32,3.09c-0.37,1.06-0.47,2.86-1.16,3.72c-0.67,0.83-2.16,0.35-3.08,0.33c-1.36-0.03-2.71,0.04-4.06,0.21 c-1.72,0.22-4.81,0.42-5.85,2.03c-1.25,1.94,0.7,3.8,1.93,5.13c1.68,1.82,3.6,3.27,5.67,4.62c1.14,0.74,1.08,1.25,0.59,2.47 c-0.51,1.28-0.93,2.59-1.25,3.92c-0.44,1.86-1.34,5.14-0.4,6.93c1.16,2.23,3.65,1.11,5.37,0.35c2.37-1.05,4.49-2.47,6.49-4.1 c1.2-0.97,1.67-0.56,2.78,0.35c1.06,0.86,2.17,1.65,3.35,2.35c1.59,0.95,4.49,2.84,6.43,2.36c2.4-0.58,2-3.33,1.8-5.2 c-0.29-2.64-1.16-4.97-1.98-7.47c-0.5-1.54,0.7-1.87,1.83-2.64c1.09-0.73,2.12-1.54,3.09-2.42c1.41-1.28,4.24-3.58,3.84-5.73 c-0.45-2.42-4.05-2.66-6-2.93c-1.34-0.19-2.68-0.26-4.03-0.24C8.93-7.54,6.7-6.89,6.38-8.33z"></path>
</g><g transform="translate(325.13585042889025 502.9346360568655) rotate(337.43606653777107) scale(0.17080867221808232)">
<g>
<path fill="#ffd391" d="M6.38-8.33C5.84-10.74,5-13.08,3.83-15.26c-0.85-1.58-1.98-4.16-4.16-3.86c-1.93,0.26-3.02,2.91-3.79,4.44 c-0.51,1-0.95,2.03-1.32,3.09c-0.37,1.06-0.47,2.86-1.16,3.72c-0.67,0.83-2.16,0.35-3.08,0.33c-1.36-0.03-2.71,0.04-4.06,0.21 c-1.72,0.22-4.81,0.42-5.85,2.03c-1.25,1.94,0.7,3.8,1.93,5.13c1.68,1.82,3.6,3.27,5.67,4.62c1.14,0.74,1.08,1.25,0.59,2.47 c-0.51,1.28-0.93,2.59-1.25,3.92c-0.44,1.86-1.34,5.14-0.4,6.93c1.16,2.23,3.65,1.11,5.37,0.35c2.37-1.05,4.49-2.47,6.49-4.1 c1.2-0.97,1.67-0.56,2.78,0.35c1.06,0.86,2.17,1.65,3.35,2.35c1.59,0.95,4.49,2.84,6.43,2.36c2.4-0.58,2-3.33,1.8-5.2 c-0.29-2.64-1.16-4.97-1.98-7.47c-0.5-1.54,0.7-1.87,1.83-2.64c1.09-0.73,2.12-1.54,3.09-2.42c1.41-1.28,4.24-3.58,3.84-5.73 c-0.45-2.42-4.05-2.66-6-2.93c-1.34-0.19-2.68-0.26-4.03-0.24C8.93-7.54,6.7-6.89,6.38-8.33z"></path>
<animateTransform attributeName="transform" type="rotate" dur="0.5988023952095808s" repeatCount="indefinite" keyTimes="0;0.5;1" calcMode="spline" keySplines="0.4 0 0.6 1;0.4 0 0.6 1" begin="-0.05865819381644873s" values="-10;10;-10"></animateTransform>
</g>
</g><g transform="translate(400.83974074325545 188.2766529528318) rotate(122.71813475562453) scale(0.1935948203976544)">
<g>
<path fill="#ffd391" d="M6.38-8.33C5.84-10.74,5-13.08,3.83-15.26c-0.85-1.58-1.98-4.16-4.16-3.86c-1.93,0.26-3.02,2.91-3.79,4.44 c-0.51,1-0.95,2.03-1.32,3.09c-0.37,1.06-0.47,2.86-1.16,3.72c-0.67,0.83-2.16,0.35-3.08,0.33c-1.36-0.03-2.71,0.04-4.06,0.21 c-1.72,0.22-4.81,0.42-5.85,2.03c-1.25,1.94,0.7,3.8,1.93,5.13c1.68,1.82,3.6,3.27,5.67,4.62c1.14,0.74,1.08,1.25,0.59,2.47 c-0.51,1.28-0.93,2.59-1.25,3.92c-0.44,1.86-1.34,5.14-0.4,6.93c1.16,2.23,3.65,1.11,5.37,0.35c2.37-1.05,4.49-2.47,6.49-4.1 c1.2-0.97,1.67-0.56,2.78,0.35c1.06,0.86,2.17,1.65,3.35,2.35c1.59,0.95,4.49,2.84,6.43,2.36c2.4-0.58,2-3.33,1.8-5.2 c-0.29-2.64-1.16-4.97-1.98-7.47c-0.5-1.54,0.7-1.87,1.83-2.64c1.09-0.73,2.12-1.54,3.09-2.42c1.41-1.28,4.24-3.58,3.84-5.73 c-0.45-2.42-4.05-2.66-6-2.93c-1.34-0.19-2.68-0.26-4.03-0.24C8.93-7.54,6.7-6.89,6.38-8.33z"></path>
<animateTransform attributeName="transform" type="rotate" dur="0.5988023952095808s" repeatCount="indefinite" keyTimes="0;0.5;1" calcMode="spline" keySplines="0.4 0 0.6 1;0.4 0 0.6 1" begin="-0.07821092508859831s" values="-10;10;-10"></animateTransform>
</g>
</g><g transform="translate(468.1866409773648 285.3500750558569) rotate(322.22193051029853) scale(0.18089851322769182)">
<g>
<path fill="#fbfaf5" d="M6.38-8.33C5.84-10.74,5-13.08,3.83-15.26c-0.85-1.58-1.98-4.16-4.16-3.86c-1.93,0.26-3.02,2.91-3.79,4.44 c-0.51,1-0.95,2.03-1.32,3.09c-0.37,1.06-0.47,2.86-1.16,3.72c-0.67,0.83-2.16,0.35-3.08,0.33c-1.36-0.03-2.71,0.04-4.06,0.21 c-1.72,0.22-4.81,0.42-5.85,2.03c-1.25,1.94,0.7,3.8,1.93,5.13c1.68,1.82,3.6,3.27,5.67,4.62c1.14,0.74,1.08,1.25,0.59,2.47 c-0.51,1.28-0.93,2.59-1.25,3.92c-0.44,1.86-1.34,5.14-0.4,6.93c1.16,2.23,3.65,1.11,5.37,0.35c2.37-1.05,4.49-2.47,6.49-4.1 c1.2-0.97,1.67-0.56,2.78,0.35c1.06,0.86,2.17,1.65,3.35,2.35c1.59,0.95,4.49,2.84,6.43,2.36c2.4-0.58,2-3.33,1.8-5.2 c-0.29-2.64-1.16-4.97-1.98-7.47c-0.5-1.54,0.7-1.87,1.83-2.64c1.09-0.73,2.12-1.54,3.09-2.42c1.41-1.28,4.24-3.58,3.84-5.73 c-0.45-2.42-4.05-2.66-6-2.93c-1.34-0.19-2.68-0.26-4.03-0.24C8.93-7.54,6.7-6.89,6.38-8.33z"></path>
<animateTransform attributeName="transform" type="rotate" dur="0.5988023952095808s" repeatCount="indefinite" keyTimes="0;0.5;1" calcMode="spline" keySplines="0.4 0 0.6 1;0.4 0 0.6 1" begin="-0.09776365636074788s" values="-10;10;-10"></animateTransform>
</g>
</g><g transform="translate(770.7054370075246 287.9427854943211) rotate(126.00929626100925) scale(0.24441906074260142)">
<g>
<path fill="#ffd391" d="M6.38-8.33C5.84-10.74,5-13.08,3.83-15.26c-0.85-1.58-1.98-4.16-4.16-3.86c-1.93,0.26-3.02,2.91-3.79,4.44 c-0.51,1-0.95,2.03-1.32,3.09c-0.37,1.06-0.47,2.86-1.16,3.72c-0.67,0.83-2.16,0.35-3.08,0.33c-1.36-0.03-2.71,0.04-4.06,0.21 c-1.72,0.22-4.81,0.42-5.85,2.03c-1.25,1.94,0.7,3.8,1.93,5.13c1.68,1.82,3.6,3.27,5.67,4.62c1.14,0.74,1.08,1.25,0.59,2.47 c-0.51,1.28-0.93,2.59-1.25,3.92c-0.44,1.86-1.34,5.14-0.4,6.93c1.16,2.23,3.65,1.11,5.37,0.35c2.37-1.05,4.49-2.47,6.49-4.1 c1.2-0.97,1.67-0.56,2.78,0.35c1.06,0.86,2.17,1.65,3.35,2.35c1.59,0.95,4.49,2.84,6.43,2.36c2.4-0.58,2-3.33,1.8-5.2 c-0.29-2.64-1.16-4.97-1.98-7.47c-0.5-1.54,0.7-1.87,1.83-2.64c1.09-0.73,2.12-1.54,3.09-2.42c1.41-1.28,4.24-3.58,3.84-5.73 c-0.45-2.42-4.05-2.66-6-2.93c-1.34-0.19-2.68-0.26-4.03-0.24C8.93-7.54,6.7-6.89,6.38-8.33z"></path>
<animateTransform attributeName="transform" type="rotate" dur="0.5988023952095808s" repeatCount="indefinite" keyTimes="0;0.5;1" calcMode="spline" keySplines="0.4 0 0.6 1;0.4 0 0.6 1" begin="-0.11731638763289746s" values="-10;10;-10"></animateTransform>
</g>
</g><g transform="translate(639.8451932032025 405.47596801347186) rotate(32.338993816140686) scale(0.17685903491324634)">
<g>
<path fill="#fbfaf5" d="M6.38-8.33C5.84-10.74,5-13.08,3.83-15.26c-0.85-1.58-1.98-4.16-4.16-3.86c-1.93,0.26-3.02,2.91-3.79,4.44 c-0.51,1-0.95,2.03-1.32,3.09c-0.37,1.06-0.47,2.86-1.16,3.72c-0.67,0.83-2.16,0.35-3.08,0.33c-1.36-0.03-2.71,0.04-4.06,0.21 c-1.72,0.22-4.81,0.42-5.85,2.03c-1.25,1.94,0.7,3.8,1.93,5.13c1.68,1.82,3.6,3.27,5.67,4.62c1.14,0.74,1.08,1.25,0.59,2.47 c-0.51,1.28-0.93,2.59-1.25,3.92c-0.44,1.86-1.34,5.14-0.4,6.93c1.16,2.23,3.65,1.11,5.37,0.35c2.37-1.05,4.49-2.47,6.49-4.1 c1.2-0.97,1.67-0.56,2.78,0.35c1.06,0.86,2.17,1.65,3.35,2.35c1.59,0.95,4.49,2.84,6.43,2.36c2.4-0.58,2-3.33,1.8-5.2 c-0.29-2.64-1.16-4.97-1.98-7.47c-0.5-1.54,0.7-1.87,1.83-2.64c1.09-0.73,2.12-1.54,3.09-2.42c1.41-1.28,4.24-3.58,3.84-5.73 c-0.45-2.42-4.05-2.66-6-2.93c-1.34-0.19-2.68-0.26-4.03-0.24C8.93-7.54,6.7-6.89,6.38-8.33z"></path>
<animateTransform attributeName="transform" type="rotate" dur="0.5988023952095808s" repeatCount="indefinite" keyTimes="0;0.5;1" calcMode="spline" keySplines="0.4 0 0.6 1;0.4 0 0.6 1" begin="-0.13686911890504705s" values="-10;10;-10"></animateTransform>
</g>
</g><g transform="translate(445.07389268458263 283.6517336303074) rotate(121.27114878220718) scale(0.16816853634133389)">
<g>
<path fill="#ffd391" d="M6.38-8.33C5.84-10.74,5-13.08,3.83-15.26c-0.85-1.58-1.98-4.16-4.16-3.86c-1.93,0.26-3.02,2.91-3.79,4.44 c-0.51,1-0.95,2.03-1.32,3.09c-0.37,1.06-0.47,2.86-1.16,3.72c-0.67,0.83-2.16,0.35-3.08,0.33c-1.36-0.03-2.71,0.04-4.06,0.21 c-1.72,0.22-4.81,0.42-5.85,2.03c-1.25,1.94,0.7,3.8,1.93,5.13c1.68,1.82,3.6,3.27,5.67,4.62c1.14,0.74,1.08,1.25,0.59,2.47 c-0.51,1.28-0.93,2.59-1.25,3.92c-0.44,1.86-1.34,5.14-0.4,6.93c1.16,2.23,3.65,1.11,5.37,0.35c2.37-1.05,4.49-2.47,6.49-4.1 c1.2-0.97,1.67-0.56,2.78,0.35c1.06,0.86,2.17,1.65,3.35,2.35c1.59,0.95,4.49,2.84,6.43,2.36c2.4-0.58,2-3.33,1.8-5.2 c-0.29-2.64-1.16-4.97-1.98-7.47c-0.5-1.54,0.7-1.87,1.83-2.64c1.09-0.73,2.12-1.54,3.09-2.42c1.41-1.28,4.24-3.58,3.84-5.73 c-0.45-2.42-4.05-2.66-6-2.93c-1.34-0.19-2.68-0.26-4.03-0.24C8.93-7.54,6.7-6.89,6.38-8.33z"></path>
<animateTransform attributeName="transform" type="rotate" dur="0.5988023952095808s" repeatCount="indefinite" keyTimes="0;0.5;1" calcMode="spline" keySplines="0.4 0 0.6 1;0.4 0 0.6 1" begin="-0.15642185017719662s" values="-10;10;-10"></animateTransform>
</g>
</g><g transform="translate(77.03552517097242 198.8418835309451) rotate(192.45335315453323) scale(0.21871884038657413)">
<g>
<path fill="#fbfaf5" d="M6.38-8.33C5.84-10.74,5-13.08,3.83-15.26c-0.85-1.58-1.98-4.16-4.16-3.86c-1.93,0.26-3.02,2.91-3.79,4.44 c-0.51,1-0.95,2.03-1.32,3.09c-0.37,1.06-0.47,2.86-1.16,3.72c-0.67,0.83-2.16,0.35-3.08,0.33c-1.36-0.03-2.71,0.04-4.06,0.21 c-1.72,0.22-4.81,0.42-5.85,2.03c-1.25,1.94,0.7,3.8,1.93,5.13c1.68,1.82,3.6,3.27,5.67,4.62c1.14,0.74,1.08,1.25,0.59,2.47 c-0.51,1.28-0.93,2.59-1.25,3.92c-0.44,1.86-1.34,5.14-0.4,6.93c1.16,2.23,3.65,1.11,5.37,0.35c2.37-1.05,4.49-2.47,6.49-4.1 c1.2-0.97,1.67-0.56,2.78,0.35c1.06,0.86,2.17,1.65,3.35,2.35c1.59,0.95,4.49,2.84,6.43,2.36c2.4-0.58,2-3.33,1.8-5.2 c-0.29-2.64-1.16-4.97-1.98-7.47c-0.5-1.54,0.7-1.87,1.83-2.64c1.09-0.73,2.12-1.54,3.09-2.42c1.41-1.28,4.24-3.58,3.84-5.73 c-0.45-2.42-4.05-2.66-6-2.93c-1.34-0.19-2.68-0.26-4.03-0.24C8.93-7.54,6.7-6.89,6.38-8.33z"></path>
<animateTransform attributeName="transform" type="rotate" dur="0.5988023952095808s" repeatCount="indefinite" keyTimes="0;0.5;1" calcMode="spline" keySplines="0.4 0 0.6 1;0.4 0 0.6 1" begin="-0.1759745814493462s" values="-10;10;-10"></animateTransform>
</g>
</g><g transform="translate(504.4443004669312 494.56701609160564) rotate(77.46377341328721) scale(0.21414858018225127)">
<g>
<path fill="#ffd391" d="M6.38-8.33C5.84-10.74,5-13.08,3.83-15.26c-0.85-1.58-1.98-4.16-4.16-3.86c-1.93,0.26-3.02,2.91-3.79,4.44 c-0.51,1-0.95,2.03-1.32,3.09c-0.37,1.06-0.47,2.86-1.16,3.72c-0.67,0.83-2.16,0.35-3.08,0.33c-1.36-0.03-2.71,0.04-4.06,0.21 c-1.72,0.22-4.81,0.42-5.85,2.03c-1.25,1.94,0.7,3.8,1.93,5.13c1.68,1.82,3.6,3.27,5.67,4.62c1.14,0.74,1.08,1.25,0.59,2.47 c-0.51,1.28-0.93,2.59-1.25,3.92c-0.44,1.86-1.34,5.14-0.4,6.93c1.16,2.23,3.65,1.11,5.37,0.35c2.37-1.05,4.49-2.47,6.49-4.1 c1.2-0.97,1.67-0.56,2.78,0.35c1.06,0.86,2.17,1.65,3.35,2.35c1.59,0.95,4.49,2.84,6.43,2.36c2.4-0.58,2-3.33,1.8-5.2 c-0.29-2.64-1.16-4.97-1.98-7.47c-0.5-1.54,0.7-1.87,1.83-2.64c1.09-0.73,2.12-1.54,3.09-2.42c1.41-1.28,4.24-3.58,3.84-5.73 c-0.45-2.42-4.05-2.66-6-2.93c-1.34-0.19-2.68-0.26-4.03-0.24C8.93-7.54,6.7-6.89,6.38-8.33z"></path>
<animateTransform attributeName="transform" type="rotate" dur="0.5988023952095808s" repeatCount="indefinite" keyTimes="0;0.5;1" calcMode="spline" keySplines="0.4 0 0.6 1;0.4 0 0.6 1" begin="-0.19552731272149576s" values="-10;10;-10"></animateTransform>
</g>
</g><g transform="translate(6.351374840487183 13.749471283346672) rotate(152.83035998802217) scale(0.1882267715187844)">
<g>
<path fill="#ffd391" d="M6.38-8.33C5.84-10.74,5-13.08,3.83-15.26c-0.85-1.58-1.98-4.16-4.16-3.86c-1.93,0.26-3.02,2.91-3.79,4.44 c-0.51,1-0.95,2.03-1.32,3.09c-0.37,1.06-0.47,2.86-1.16,3.72c-0.67,0.83-2.16,0.35-3.08,0.33c-1.36-0.03-2.71,0.04-4.06,0.21 c-1.72,0.22-4.81,0.42-5.85,2.03c-1.25,1.94,0.7,3.8,1.93,5.13c1.68,1.82,3.6,3.27,5.67,4.62c1.14,0.74,1.08,1.25,0.59,2.47 c-0.51,1.28-0.93,2.59-1.25,3.92c-0.44,1.86-1.34,5.14-0.4,6.93c1.16,2.23,3.65,1.11,5.37,0.35c2.37-1.05,4.49-2.47,6.49-4.1 c1.2-0.97,1.67-0.56,2.78,0.35c1.06,0.86,2.17,1.65,3.35,2.35c1.59,0.95,4.49,2.84,6.43,2.36c2.4-0.58,2-3.33,1.8-5.2 c-0.29-2.64-1.16-4.97-1.98-7.47c-0.5-1.54,0.7-1.87,1.83-2.64c1.09-0.73,2.12-1.54,3.09-2.42c1.41-1.28,4.24-3.58,3.84-5.73 c-0.45-2.42-4.05-2.66-6-2.93c-1.34-0.19-2.68-0.26-4.03-0.24C8.93-7.54,6.7-6.89,6.38-8.33z"></path>
<animateTransform attributeName="transform" type="rotate" dur="0.5988023952095808s" repeatCount="indefinite" keyTimes="0;0.5;1" calcMode="spline" keySplines="0.4 0 0.6 1;0.4 0 0.6 1" begin="-0.21508004399364533s" values="-10;10;-10"></animateTransform>
</g>
</g><g transform="translate(689.9294097000967 21.077933087587184) rotate(220.29122434383976) scale(0.17388071336732455)">
<g>
<path fill="#ffd391" d="M6.38-8.33C5.84-10.74,5-13.08,3.83-15.26c-0.85-1.58-1.98-4.16-4.16-3.86c-1.93,0.26-3.02,2.91-3.79,4.44 c-0.51,1-0.95,2.03-1.32,3.09c-0.37,1.06-0.47,2.86-1.16,3.72c-0.67,0.83-2.16,0.35-3.08,0.33c-1.36-0.03-2.71,0.04-4.06,0.21 c-1.72,0.22-4.81,0.42-5.85,2.03c-1.25,1.94,0.7,3.8,1.93,5.13c1.68,1.82,3.6,3.27,5.67,4.62c1.14,0.74,1.08,1.25,0.59,2.47 c-0.51,1.28-0.93,2.59-1.25,3.92c-0.44,1.86-1.34,5.14-0.4,6.93c1.16,2.23,3.65,1.11,5.37,0.35c2.37-1.05,4.49-2.47,6.49-4.1 c1.2-0.97,1.67-0.56,2.78,0.35c1.06,0.86,2.17,1.65,3.35,2.35c1.59,0.95,4.49,2.84,6.43,2.36c2.4-0.58,2-3.33,1.8-5.2 c-0.29-2.64-1.16-4.97-1.98-7.47c-0.5-1.54,0.7-1.87,1.83-2.64c1.09-0.73,2.12-1.54,3.09-2.42c1.41-1.28,4.24-3.58,3.84-5.73 c-0.45-2.42-4.05-2.66-6-2.93c-1.34-0.19-2.68-0.26-4.03-0.24C8.93-7.54,6.7-6.89,6.38-8.33z"></path>
<animateTransform attributeName="transform" type="rotate" dur="0.5988023952095808s" repeatCount="indefinite" keyTimes="0;0.5;1" calcMode="spline" keySplines="0.4 0 0.6 1;0.4 0 0.6 1" begin="-0.23463277526579493s" values="-10;10;-10"></animateTransform>
</g>
</g><g transform="translate(708.952833963345 407.8063701329227) rotate(84.93235004148725) scale(0.2437042633018907)">
<g>
<path fill="#fbfaf5" d="M6.38-8.33C5.84-10.74,5-13.08,3.83-15.26c-0.85-1.58-1.98-4.16-4.16-3.86c-1.93,0.26-3.02,2.91-3.79,4.44 c-0.51,1-0.95,2.03-1.32,3.09c-0.37,1.06-0.47,2.86-1.16,3.72c-0.67,0.83-2.16,0.35-3.08,0.33c-1.36-0.03-2.71,0.04-4.06,0.21 c-1.72,0.22-4.81,0.42-5.85,2.03c-1.25,1.94,0.7,3.8,1.93,5.13c1.68,1.82,3.6,3.27,5.67,4.62c1.14,0.74,1.08,1.25,0.59,2.47 c-0.51,1.28-0.93,2.59-1.25,3.92c-0.44,1.86-1.34,5.14-0.4,6.93c1.16,2.23,3.65,1.11,5.37,0.35c2.37-1.05,4.49-2.47,6.49-4.1 c1.2-0.97,1.67-0.56,2.78,0.35c1.06,0.86,2.17,1.65,3.35,2.35c1.59,0.95,4.49,2.84,6.43,2.36c2.4-0.58,2-3.33,1.8-5.2 c-0.29-2.64-1.16-4.97-1.98-7.47c-0.5-1.54,0.7-1.87,1.83-2.64c1.09-0.73,2.12-1.54,3.09-2.42c1.41-1.28,4.24-3.58,3.84-5.73 c-0.45-2.42-4.05-2.66-6-2.93c-1.34-0.19-2.68-0.26-4.03-0.24C8.93-7.54,6.7-6.89,6.38-8.33z"></path>
<animateTransform attributeName="transform" type="rotate" dur="0.5988023952095808s" repeatCount="indefinite" keyTimes="0;0.5;1" calcMode="spline" keySplines="0.4 0 0.6 1;0.4 0 0.6 1" begin="-0.25418550653794453s" values="-10;10;-10"></animateTransform>
</g>
</g><g transform="translate(713.259785178205 457.71923388021906) rotate(347.53586701501104) scale(0.18708671910829416)">
<g>
<path fill="#fbfaf5" d="M6.38-8.33C5.84-10.74,5-13.08,3.83-15.26c-0.85-1.58-1.98-4.16-4.16-3.86c-1.93,0.26-3.02,2.91-3.79,4.44 c-0.51,1-0.95,2.03-1.32,3.09c-0.37,1.06-0.47,2.86-1.16,3.72c-0.67,0.83-2.16,0.35-3.08,0.33c-1.36-0.03-2.71,0.04-4.06,0.21 c-1.72,0.22-4.81,0.42-5.85,2.03c-1.25,1.94,0.7,3.8,1.93,5.13c1.68,1.82,3.6,3.27,5.67,4.62c1.14,0.74,1.08,1.25,0.59,2.47 c-0.51,1.28-0.93,2.59-1.25,3.92c-0.44,1.86-1.34,5.14-0.4,6.93c1.16,2.23,3.65,1.11,5.37,0.35c2.37-1.05,4.49-2.47,6.49-4.1 c1.2-0.97,1.67-0.56,2.78,0.35c1.06,0.86,2.17,1.65,3.35,2.35c1.59,0.95,4.49,2.84,6.43,2.36c2.4-0.58,2-3.33,1.8-5.2 c-0.29-2.64-1.16-4.97-1.98-7.47c-0.5-1.54,0.7-1.87,1.83-2.64c1.09-0.73,2.12-1.54,3.09-2.42c1.41-1.28,4.24-3.58,3.84-5.73 c-0.45-2.42-4.05-2.66-6-2.93c-1.34-0.19-2.68-0.26-4.03-0.24C8.93-7.54,6.7-6.89,6.38-8.33z"></path>
<animateTransform attributeName="transform" type="rotate" dur="0.5988023952095808s" repeatCount="indefinite" keyTimes="0;0.5;1" calcMode="spline" keySplines="0.4 0 0.6 1;0.4 0 0.6 1" begin="-0.2737382378100941s" values="-10;10;-10"></animateTransform>
</g>
</g><g transform="translate(466.9797414682051 402.9126925813731) rotate(208.02159596925424) scale(0.18326930921788046)">
<g>
<path fill="#ffd391" d="M6.38-8.33C5.84-10.74,5-13.08,3.83-15.26c-0.85-1.58-1.98-4.16-4.16-3.86c-1.93,0.26-3.02,2.91-3.79,4.44 c-0.51,1-0.95,2.03-1.32,3.09c-0.37,1.06-0.47,2.86-1.16,3.72c-0.67,0.83-2.16,0.35-3.08,0.33c-1.36-0.03-2.71,0.04-4.06,0.21 c-1.72,0.22-4.81,0.42-5.85,2.03c-1.25,1.94,0.7,3.8,1.93,5.13c1.68,1.82,3.6,3.27,5.67,4.62c1.14,0.74,1.08,1.25,0.59,2.47 c-0.51,1.28-0.93,2.59-1.25,3.92c-0.44,1.86-1.34,5.14-0.4,6.93c1.16,2.23,3.65,1.11,5.37,0.35c2.37-1.05,4.49-2.47,6.49-4.1 c1.2-0.97,1.67-0.56,2.78,0.35c1.06,0.86,2.17,1.65,3.35,2.35c1.59,0.95,4.49,2.84,6.43,2.36c2.4-0.58,2-3.33,1.8-5.2 c-0.29-2.64-1.16-4.97-1.98-7.47c-0.5-1.54,0.7-1.87,1.83-2.64c1.09-0.73,2.12-1.54,3.09-2.42c1.41-1.28,4.24-3.58,3.84-5.73 c-0.45-2.42-4.05-2.66-6-2.93c-1.34-0.19-2.68-0.26-4.03-0.24C8.93-7.54,6.7-6.89,6.38-8.33z"></path>
<animateTransform attributeName="transform" type="rotate" dur="0.5988023952095808s" repeatCount="indefinite" keyTimes="0;0.5;1" calcMode="spline" keySplines="0.4 0 0.6 1;0.4 0 0.6 1" begin="-0.2932909690822436s" values="-10;10;-10"></animateTransform>
</g>
</g><g transform="translate(421.71828593644074 193.68806150324087) rotate(222.36689694916464) scale(0.17995844417044196)">
<g>
<path fill="#ffd391" d="M6.38-8.33C5.84-10.74,5-13.08,3.83-15.26c-0.85-1.58-1.98-4.16-4.16-3.86c-1.93,0.26-3.02,2.91-3.79,4.44 c-0.51,1-0.95,2.03-1.32,3.09c-0.37,1.06-0.47,2.86-1.16,3.72c-0.67,0.83-2.16,0.35-3.08,0.33c-1.36-0.03-2.71,0.04-4.06,0.21 c-1.72,0.22-4.81,0.42-5.85,2.03c-1.25,1.94,0.7,3.8,1.93,5.13c1.68,1.82,3.6,3.27,5.67,4.62c1.14,0.74,1.08,1.25,0.59,2.47 c-0.51,1.28-0.93,2.59-1.25,3.92c-0.44,1.86-1.34,5.14-0.4,6.93c1.16,2.23,3.65,1.11,5.37,0.35c2.37-1.05,4.49-2.47,6.49-4.1 c1.2-0.97,1.67-0.56,2.78,0.35c1.06,0.86,2.17,1.65,3.35,2.35c1.59,0.95,4.49,2.84,6.43,2.36c2.4-0.58,2-3.33,1.8-5.2 c-0.29-2.64-1.16-4.97-1.98-7.47c-0.5-1.54,0.7-1.87,1.83-2.64c1.09-0.73,2.12-1.54,3.09-2.42c1.41-1.28,4.24-3.58,3.84-5.73 c-0.45-2.42-4.05-2.66-6-2.93c-1.34-0.19-2.68-0.26-4.03-0.24C8.93-7.54,6.7-6.89,6.38-8.33z"></path>
<animateTransform attributeName="transform" type="rotate" dur="0.5988023952095808s" repeatCount="indefinite" keyTimes="0;0.5;1" calcMode="spline" keySplines="0.4 0 0.6 1;0.4 0 0.6 1" begin="-0.31284370035439324s" values="-10;10;-10"></animateTransform>
</g>
</g><g transform="translate(648.8235687080647 223.62637354665165) rotate(224.8606283844985) scale(0.1700919998128728)">
<g>
<path fill="#fbfaf5" d="M6.38-8.33C5.84-10.74,5-13.08,3.83-15.26c-0.85-1.58-1.98-4.16-4.16-3.86c-1.93,0.26-3.02,2.91-3.79,4.44 c-0.51,1-0.95,2.03-1.32,3.09c-0.37,1.06-0.47,2.86-1.16,3.72c-0.67,0.83-2.16,0.35-3.08,0.33c-1.36-0.03-2.71,0.04-4.06,0.21 c-1.72,0.22-4.81,0.42-5.85,2.03c-1.25,1.94,0.7,3.8,1.93,5.13c1.68,1.82,3.6,3.27,5.67,4.62c1.14,0.74,1.08,1.25,0.59,2.47 c-0.51,1.28-0.93,2.59-1.25,3.92c-0.44,1.86-1.34,5.14-0.4,6.93c1.16,2.23,3.65,1.11,5.37,0.35c2.37-1.05,4.49-2.47,6.49-4.1 c1.2-0.97,1.67-0.56,2.78,0.35c1.06,0.86,2.17,1.65,3.35,2.35c1.59,0.95,4.49,2.84,6.43,2.36c2.4-0.58,2-3.33,1.8-5.2 c-0.29-2.64-1.16-4.97-1.98-7.47c-0.5-1.54,0.7-1.87,1.83-2.64c1.09-0.73,2.12-1.54,3.09-2.42c1.41-1.28,4.24-3.58,3.84-5.73 c-0.45-2.42-4.05-2.66-6-2.93c-1.34-0.19-2.68-0.26-4.03-0.24C8.93-7.54,6.7-6.89,6.38-8.33z"></path>
<animateTransform attributeName="transform" type="rotate" dur="0.5988023952095808s" repeatCount="indefinite" keyTimes="0;0.5;1" calcMode="spline" keySplines="0.4 0 0.6 1;0.4 0 0.6 1" begin="-0.3323964316265428s" values="-10;10;-10"></animateTransform>
</g>
</g><g transform="translate(75.2147866487569 363.3226673691205) rotate(356.69428069311675) scale(0.1773588140740672)">
<g>
<path fill="#ffd391" d="M6.38-8.33C5.84-10.74,5-13.08,3.83-15.26c-0.85-1.58-1.98-4.16-4.16-3.86c-1.93,0.26-3.02,2.91-3.79,4.44 c-0.51,1-0.95,2.03-1.32,3.09c-0.37,1.06-0.47,2.86-1.16,3.72c-0.67,0.83-2.16,0.35-3.08,0.33c-1.36-0.03-2.71,0.04-4.06,0.21 c-1.72,0.22-4.81,0.42-5.85,2.03c-1.25,1.94,0.7,3.8,1.93,5.13c1.68,1.82,3.6,3.27,5.67,4.62c1.14,0.74,1.08,1.25,0.59,2.47 c-0.51,1.28-0.93,2.59-1.25,3.92c-0.44,1.86-1.34,5.14-0.4,6.93c1.16,2.23,3.65,1.11,5.37,0.35c2.37-1.05,4.49-2.47,6.49-4.1 c1.2-0.97,1.67-0.56,2.78,0.35c1.06,0.86,2.17,1.65,3.35,2.35c1.59,0.95,4.49,2.84,6.43,2.36c2.4-0.58,2-3.33,1.8-5.2 c-0.29-2.64-1.16-4.97-1.98-7.47c-0.5-1.54,0.7-1.87,1.83-2.64c1.09-0.73,2.12-1.54,3.09-2.42c1.41-1.28,4.24-3.58,3.84-5.73 c-0.45-2.42-4.05-2.66-6-2.93c-1.34-0.19-2.68-0.26-4.03-0.24C8.93-7.54,6.7-6.89,6.38-8.33z"></path>
<animateTransform attributeName="transform" type="rotate" dur="0.5988023952095808s" repeatCount="indefinite" keyTimes="0;0.5;1" calcMode="spline" keySplines="0.4 0 0.6 1;0.4 0 0.6 1" begin="-0.3519491628986924s" values="-10;10;-10"></animateTransform>
</g>
</g><g transform="translate(262.9051927545346 275.7857611030143) rotate(130.19592469483183) scale(0.20671174331473322)">
<g>
<path fill="#fbfaf5" d="M6.38-8.33C5.84-10.74,5-13.08,3.83-15.26c-0.85-1.58-1.98-4.16-4.16-3.86c-1.93,0.26-3.02,2.91-3.79,4.44 c-0.51,1-0.95,2.03-1.32,3.09c-0.37,1.06-0.47,2.86-1.16,3.72c-0.67,0.83-2.16,0.35-3.08,0.33c-1.36-0.03-2.71,0.04-4.06,0.21 c-1.72,0.22-4.81,0.42-5.85,2.03c-1.25,1.94,0.7,3.8,1.93,5.13c1.68,1.82,3.6,3.27,5.67,4.62c1.14,0.74,1.08,1.25,0.59,2.47 c-0.51,1.28-0.93,2.59-1.25,3.92c-0.44,1.86-1.34,5.14-0.4,6.93c1.16,2.23,3.65,1.11,5.37,0.35c2.37-1.05,4.49-2.47,6.49-4.1 c1.2-0.97,1.67-0.56,2.78,0.35c1.06,0.86,2.17,1.65,3.35,2.35c1.59,0.95,4.49,2.84,6.43,2.36c2.4-0.58,2-3.33,1.8-5.2 c-0.29-2.64-1.16-4.97-1.98-7.47c-0.5-1.54,0.7-1.87,1.83-2.64c1.09-0.73,2.12-1.54,3.09-2.42c1.41-1.28,4.24-3.58,3.84-5.73 c-0.45-2.42-4.05-2.66-6-2.93c-1.34-0.19-2.68-0.26-4.03-0.24C8.93-7.54,6.7-6.89,6.38-8.33z"></path>
<animateTransform attributeName="transform" type="rotate" dur="0.5988023952095808s" repeatCount="indefinite" keyTimes="0;0.5;1" calcMode="spline" keySplines="0.4 0 0.6 1;0.4 0 0.6 1" begin="-0.37150189417084195s" values="-10;10;-10"></animateTransform>
</g>
</g><g transform="translate(384.2443011369076 388.46394594237404) rotate(138.97649245212327) scale(0.18264553988015916)">
<g>
<path fill="#ffd391" d="M6.38-8.33C5.84-10.74,5-13.08,3.83-15.26c-0.85-1.58-1.98-4.16-4.16-3.86c-1.93,0.26-3.02,2.91-3.79,4.44 c-0.51,1-0.95,2.03-1.32,3.09c-0.37,1.06-0.47,2.86-1.16,3.72c-0.67,0.83-2.16,0.35-3.08,0.33c-1.36-0.03-2.71,0.04-4.06,0.21 c-1.72,0.22-4.81,0.42-5.85,2.03c-1.25,1.94,0.7,3.8,1.93,5.13c1.68,1.82,3.6,3.27,5.67,4.62c1.14,0.74,1.08,1.25,0.59,2.47 c-0.51,1.28-0.93,2.59-1.25,3.92c-0.44,1.86-1.34,5.14-0.4,6.93c1.16,2.23,3.65,1.11,5.37,0.35c2.37-1.05,4.49-2.47,6.49-4.1 c1.2-0.97,1.67-0.56,2.78,0.35c1.06,0.86,2.17,1.65,3.35,2.35c1.59,0.95,4.49,2.84,6.43,2.36c2.4-0.58,2-3.33,1.8-5.2 c-0.29-2.64-1.16-4.97-1.98-7.47c-0.5-1.54,0.7-1.87,1.83-2.64c1.09-0.73,2.12-1.54,3.09-2.42c1.41-1.28,4.24-3.58,3.84-5.73 c-0.45-2.42-4.05-2.66-6-2.93c-1.34-0.19-2.68-0.26-4.03-0.24C8.93-7.54,6.7-6.89,6.38-8.33z"></path>
<animateTransform attributeName="transform" type="rotate" dur="0.5988023952095808s" repeatCount="indefinite" keyTimes="0;0.5;1" calcMode="spline" keySplines="0.4 0 0.6 1;0.4 0 0.6 1" begin="-0.3910546254429915s" values="-10;10;-10"></animateTransform>
</g>
</g><g transform="translate(347.1386185211083 284.15820407068185) rotate(249.7468726409259) scale(0.21112745563914015)">
<g>
<path fill="#ffd391" d="M6.38-8.33C5.84-10.74,5-13.08,3.83-15.26c-0.85-1.58-1.98-4.16-4.16-3.86c-1.93,0.26-3.02,2.91-3.79,4.44 c-0.51,1-0.95,2.03-1.32,3.09c-0.37,1.06-0.47,2.86-1.16,3.72c-0.67,0.83-2.16,0.35-3.08,0.33c-1.36-0.03-2.71,0.04-4.06,0.21 c-1.72,0.22-4.81,0.42-5.85,2.03c-1.25,1.94,0.7,3.8,1.93,5.13c1.68,1.82,3.6,3.27,5.67,4.62c1.14,0.74,1.08,1.25,0.59,2.47 c-0.51,1.28-0.93,2.59-1.25,3.92c-0.44,1.86-1.34,5.14-0.4,6.93c1.16,2.23,3.65,1.11,5.37,0.35c2.37-1.05,4.49-2.47,6.49-4.1 c1.2-0.97,1.67-0.56,2.78,0.35c1.06,0.86,2.17,1.65,3.35,2.35c1.59,0.95,4.49,2.84,6.43,2.36c2.4-0.58,2-3.33,1.8-5.2 c-0.29-2.64-1.16-4.97-1.98-7.47c-0.5-1.54,0.7-1.87,1.83-2.64c1.09-0.73,2.12-1.54,3.09-2.42c1.41-1.28,4.24-3.58,3.84-5.73 c-0.45-2.42-4.05-2.66-6-2.93c-1.34-0.19-2.68-0.26-4.03-0.24C8.93-7.54,6.7-6.89,6.38-8.33z"></path>
<animateTransform attributeName="transform" type="rotate" dur="0.5988023952095808s" repeatCount="indefinite" keyTimes="0;0.5;1" calcMode="spline" keySplines="0.4 0 0.6 1;0.4 0 0.6 1" begin="-0.41060735671514115s" values="-10;10;-10"></animateTransform>
</g>
</g><g transform="translate(670.2702818647089 397.77530708137584) rotate(95.92717866629374) scale(0.23333614656436083)">
<g>
<path fill="#fbfaf5" d="M6.38-8.33C5.84-10.74,5-13.08,3.83-15.26c-0.85-1.58-1.98-4.16-4.16-3.86c-1.93,0.26-3.02,2.91-3.79,4.44 c-0.51,1-0.95,2.03-1.32,3.09c-0.37,1.06-0.47,2.86-1.16,3.72c-0.67,0.83-2.16,0.35-3.08,0.33c-1.36-0.03-2.71,0.04-4.06,0.21 c-1.72,0.22-4.81,0.42-5.85,2.03c-1.25,1.94,0.7,3.8,1.93,5.13c1.68,1.82,3.6,3.27,5.67,4.62c1.14,0.74,1.08,1.25,0.59,2.47 c-0.51,1.28-0.93,2.59-1.25,3.92c-0.44,1.86-1.34,5.14-0.4,6.93c1.16,2.23,3.65,1.11,5.37,0.35c2.37-1.05,4.49-2.47,6.49-4.1 c1.2-0.97,1.67-0.56,2.78,0.35c1.06,0.86,2.17,1.65,3.35,2.35c1.59,0.95,4.49,2.84,6.43,2.36c2.4-0.58,2-3.33,1.8-5.2 c-0.29-2.64-1.16-4.97-1.98-7.47c-0.5-1.54,0.7-1.87,1.83-2.64c1.09-0.73,2.12-1.54,3.09-2.42c1.41-1.28,4.24-3.58,3.84-5.73 c-0.45-2.42-4.05-2.66-6-2.93c-1.34-0.19-2.68-0.26-4.03-0.24C8.93-7.54,6.7-6.89,6.38-8.33z"></path>
<animateTransform attributeName="transform" type="rotate" dur="0.5988023952095808s" repeatCount="indefinite" keyTimes="0;0.5;1" calcMode="spline" keySplines="0.4 0 0.6 1;0.4 0 0.6 1" begin="-0.43016008798729066s" values="-10;10;-10"></animateTransform>
</g>
</g><g transform="translate(510.80717268126375 429.9563497140125) rotate(130.49950993433836) scale(0.2117301880820903)">
<g>
<path fill="#ffd391" d="M6.38-8.33C5.84-10.74,5-13.08,3.83-15.26c-0.85-1.58-1.98-4.16-4.16-3.86c-1.93,0.26-3.02,2.91-3.79,4.44 c-0.51,1-0.95,2.03-1.32,3.09c-0.37,1.06-0.47,2.86-1.16,3.72c-0.67,0.83-2.16,0.35-3.08,0.33c-1.36-0.03-2.71,0.04-4.06,0.21 c-1.72,0.22-4.81,0.42-5.85,2.03c-1.25,1.94,0.7,3.8,1.93,5.13c1.68,1.82,3.6,3.27,5.67,4.62c1.14,0.74,1.08,1.25,0.59,2.47 c-0.51,1.28-0.93,2.59-1.25,3.92c-0.44,1.86-1.34,5.14-0.4,6.93c1.16,2.23,3.65,1.11,5.37,0.35c2.37-1.05,4.49-2.47,6.49-4.1 c1.2-0.97,1.67-0.56,2.78,0.35c1.06,0.86,2.17,1.65,3.35,2.35c1.59,0.95,4.49,2.84,6.43,2.36c2.4-0.58,2-3.33,1.8-5.2 c-0.29-2.64-1.16-4.97-1.98-7.47c-0.5-1.54,0.7-1.87,1.83-2.64c1.09-0.73,2.12-1.54,3.09-2.42c1.41-1.28,4.24-3.58,3.84-5.73 c-0.45-2.42-4.05-2.66-6-2.93c-1.34-0.19-2.68-0.26-4.03-0.24C8.93-7.54,6.7-6.89,6.38-8.33z"></path>
<animateTransform attributeName="transform" type="rotate" dur="0.5988023952095808s" repeatCount="indefinite" keyTimes="0;0.5;1" calcMode="spline" keySplines="0.4 0 0.6 1;0.4 0 0.6 1" begin="-0.4497128192594403s" values="-10;10;-10"></animateTransform>
</g>
</g><g transform="translate(35.5829969258905 290.74214137192536) rotate(168.28316154518208) scale(0.16870050537908257)">
<g>
<path fill="#ffd391" d="M6.38-8.33C5.84-10.74,5-13.08,3.83-15.26c-0.85-1.58-1.98-4.16-4.16-3.86c-1.93,0.26-3.02,2.91-3.79,4.44 c-0.51,1-0.95,2.03-1.32,3.09c-0.37,1.06-0.47,2.86-1.16,3.72c-0.67,0.83-2.16,0.35-3.08,0.33c-1.36-0.03-2.71,0.04-4.06,0.21 c-1.72,0.22-4.81,0.42-5.85,2.03c-1.25,1.94,0.7,3.8,1.93,5.13c1.68,1.82,3.6,3.27,5.67,4.62c1.14,0.74,1.08,1.25,0.59,2.47 c-0.51,1.28-0.93,2.59-1.25,3.92c-0.44,1.86-1.34,5.14-0.4,6.93c1.16,2.23,3.65,1.11,5.37,0.35c2.37-1.05,4.49-2.47,6.49-4.1 c1.2-0.97,1.67-0.56,2.78,0.35c1.06,0.86,2.17,1.65,3.35,2.35c1.59,0.95,4.49,2.84,6.43,2.36c2.4-0.58,2-3.33,1.8-5.2 c-0.29-2.64-1.16-4.97-1.98-7.47c-0.5-1.54,0.7-1.87,1.83-2.64c1.09-0.73,2.12-1.54,3.09-2.42c1.41-1.28,4.24-3.58,3.84-5.73 c-0.45-2.42-4.05-2.66-6-2.93c-1.34-0.19-2.68-0.26-4.03-0.24C8.93-7.54,6.7-6.89,6.38-8.33z"></path>
<animateTransform attributeName="transform" type="rotate" dur="0.5988023952095808s" repeatCount="indefinite" keyTimes="0;0.5;1" calcMode="spline" keySplines="0.4 0 0.6 1;0.4 0 0.6 1" begin="-0.46926555053158986s" values="-10;10;-10"></animateTransform>
</g>
</g><g transform="translate(521.5854005236101 410.2566932388832) rotate(104.4295928865246) scale(0.20308980332356014)">
<g>
<path fill="#fbfaf5" d="M6.38-8.33C5.84-10.74,5-13.08,3.83-15.26c-0.85-1.58-1.98-4.16-4.16-3.86c-1.93,0.26-3.02,2.91-3.79,4.44 c-0.51,1-0.95,2.03-1.32,3.09c-0.37,1.06-0.47,2.86-1.16,3.72c-0.67,0.83-2.16,0.35-3.08,0.33c-1.36-0.03-2.71,0.04-4.06,0.21 c-1.72,0.22-4.81,0.42-5.85,2.03c-1.25,1.94,0.7,3.8,1.93,5.13c1.68,1.82,3.6,3.27,5.67,4.62c1.14,0.74,1.08,1.25,0.59,2.47 c-0.51,1.28-0.93,2.59-1.25,3.92c-0.44,1.86-1.34,5.14-0.4,6.93c1.16,2.23,3.65,1.11,5.37,0.35c2.37-1.05,4.49-2.47,6.49-4.1 c1.2-0.97,1.67-0.56,2.78,0.35c1.06,0.86,2.17,1.65,3.35,2.35c1.59,0.95,4.49,2.84,6.43,2.36c2.4-0.58,2-3.33,1.8-5.2 c-0.29-2.64-1.16-4.97-1.98-7.47c-0.5-1.54,0.7-1.87,1.83-2.64c1.09-0.73,2.12-1.54,3.09-2.42c1.41-1.28,4.24-3.58,3.84-5.73 c-0.45-2.42-4.05-2.66-6-2.93c-1.34-0.19-2.68-0.26-4.03-0.24C8.93-7.54,6.7-6.89,6.38-8.33z"></path>
<animateTransform attributeName="transform" type="rotate" dur="0.5988023952095808s" repeatCount="indefinite" keyTimes="0;0.5;1" calcMode="spline" keySplines="0.4 0 0.6 1;0.4 0 0.6 1" begin="-0.48881828180373943s" values="-10;10;-10"></animateTransform>
</g>
</g><g transform="translate(665.5376873623135 207.4338309201684) rotate(342.72500306177125) scale(0.17918807236394826)">
<g>
<path fill="#fbfaf5" d="M6.38-8.33C5.84-10.74,5-13.08,3.83-15.26c-0.85-1.58-1.98-4.16-4.16-3.86c-1.93,0.26-3.02,2.91-3.79,4.44 c-0.51,1-0.95,2.03-1.32,3.09c-0.37,1.06-0.47,2.86-1.16,3.72c-0.67,0.83-2.16,0.35-3.08,0.33c-1.36-0.03-2.71,0.04-4.06,0.21 c-1.72,0.22-4.81,0.42-5.85,2.03c-1.25,1.94,0.7,3.8,1.93,5.13c1.68,1.82,3.6,3.27,5.67,4.62c1.14,0.74,1.08,1.25,0.59,2.47 c-0.51,1.28-0.93,2.59-1.25,3.92c-0.44,1.86-1.34,5.14-0.4,6.93c1.16,2.23,3.65,1.11,5.37,0.35c2.37-1.05,4.49-2.47,6.49-4.1 c1.2-0.97,1.67-0.56,2.78,0.35c1.06,0.86,2.17,1.65,3.35,2.35c1.59,0.95,4.49,2.84,6.43,2.36c2.4-0.58,2-3.33,1.8-5.2 c-0.29-2.64-1.16-4.97-1.98-7.47c-0.5-1.54,0.7-1.87,1.83-2.64c1.09-0.73,2.12-1.54,3.09-2.42c1.41-1.28,4.24-3.58,3.84-5.73 c-0.45-2.42-4.05-2.66-6-2.93c-1.34-0.19-2.68-0.26-4.03-0.24C8.93-7.54,6.7-6.89,6.38-8.33z"></path>
<animateTransform attributeName="transform" type="rotate" dur="0.5988023952095808s" repeatCount="indefinite" keyTimes="0;0.5;1" calcMode="spline" keySplines="0.4 0 0.6 1;0.4 0 0.6 1" begin="-0.5083710130758891s" values="-10;10;-10"></animateTransform>
</g>
</g><g transform="translate(110.61205953453859 377.87801778621383) rotate(322.5465824174257) scale(0.22053926674247537)">
<g>
<path fill="#fbfaf5" d="M6.38-8.33C5.84-10.74,5-13.08,3.83-15.26c-0.85-1.58-1.98-4.16-4.16-3.86c-1.93,0.26-3.02,2.91-3.79,4.44 c-0.51,1-0.95,2.03-1.32,3.09c-0.37,1.06-0.47,2.86-1.16,3.72c-0.67,0.83-2.16,0.35-3.08,0.33c-1.36-0.03-2.71,0.04-4.06,0.21 c-1.72,0.22-4.81,0.42-5.85,2.03c-1.25,1.94,0.7,3.8,1.93,5.13c1.68,1.82,3.6,3.27,5.67,4.62c1.14,0.74,1.08,1.25,0.59,2.47 c-0.51,1.28-0.93,2.59-1.25,3.92c-0.44,1.86-1.34,5.14-0.4,6.93c1.16,2.23,3.65,1.11,5.37,0.35c2.37-1.05,4.49-2.47,6.49-4.1 c1.2-0.97,1.67-0.56,2.78,0.35c1.06,0.86,2.17,1.65,3.35,2.35c1.59,0.95,4.49,2.84,6.43,2.36c2.4-0.58,2-3.33,1.8-5.2 c-0.29-2.64-1.16-4.97-1.98-7.47c-0.5-1.54,0.7-1.87,1.83-2.64c1.09-0.73,2.12-1.54,3.09-2.42c1.41-1.28,4.24-3.58,3.84-5.73 c-0.45-2.42-4.05-2.66-6-2.93c-1.34-0.19-2.68-0.26-4.03-0.24C8.93-7.54,6.7-6.89,6.38-8.33z"></path>
<animateTransform attributeName="transform" type="rotate" dur="0.5988023952095808s" repeatCount="indefinite" keyTimes="0;0.5;1" calcMode="spline" keySplines="0.4 0 0.6 1;0.4 0 0.6 1" begin="-0.5279237443480386s" values="-10;10;-10"></animateTransform>
</g>
</g><g transform="translate(620.136393405076 481.9345010227033) rotate(319.7751061954925) scale(0.19651985076080847)">
<g>
<path fill="#ffd391" d="M6.38-8.33C5.84-10.74,5-13.08,3.83-15.26c-0.85-1.58-1.98-4.16-4.16-3.86c-1.93,0.26-3.02,2.91-3.79,4.44 c-0.51,1-0.95,2.03-1.32,3.09c-0.37,1.06-0.47,2.86-1.16,3.72c-0.67,0.83-2.16,0.35-3.08,0.33c-1.36-0.03-2.71,0.04-4.06,0.21 c-1.72,0.22-4.81,0.42-5.85,2.03c-1.25,1.94,0.7,3.8,1.93,5.13c1.68,1.82,3.6,3.27,5.67,4.62c1.14,0.74,1.08,1.25,0.59,2.47 c-0.51,1.28-0.93,2.59-1.25,3.92c-0.44,1.86-1.34,5.14-0.4,6.93c1.16,2.23,3.65,1.11,5.37,0.35c2.37-1.05,4.49-2.47,6.49-4.1 c1.2-0.97,1.67-0.56,2.78,0.35c1.06,0.86,2.17,1.65,3.35,2.35c1.59,0.95,4.49,2.84,6.43,2.36c2.4-0.58,2-3.33,1.8-5.2 c-0.29-2.64-1.16-4.97-1.98-7.47c-0.5-1.54,0.7-1.87,1.83-2.64c1.09-0.73,2.12-1.54,3.09-2.42c1.41-1.28,4.24-3.58,3.84-5.73 c-0.45-2.42-4.05-2.66-6-2.93c-1.34-0.19-2.68-0.26-4.03-0.24C8.93-7.54,6.7-6.89,6.38-8.33z"></path>
<animateTransform attributeName="transform" type="rotate" dur="0.5988023952095808s" repeatCount="indefinite" keyTimes="0;0.5;1" calcMode="spline" keySplines="0.4 0 0.6 1;0.4 0 0.6 1" begin="-0.5474764756201882s" values="-10;10;-10"></animateTransform>
</g>
</g><g transform="translate(633.9954438351871 302.0402679381174) rotate(340.1188709430512) scale(0.22823777203123002)">
<g>
<path fill="#fbfaf5" d="M6.38-8.33C5.84-10.74,5-13.08,3.83-15.26c-0.85-1.58-1.98-4.16-4.16-3.86c-1.93,0.26-3.02,2.91-3.79,4.44 c-0.51,1-0.95,2.03-1.32,3.09c-0.37,1.06-0.47,2.86-1.16,3.72c-0.67,0.83-2.16,0.35-3.08,0.33c-1.36-0.03-2.71,0.04-4.06,0.21 c-1.72,0.22-4.81,0.42-5.85,2.03c-1.25,1.94,0.7,3.8,1.93,5.13c1.68,1.82,3.6,3.27,5.67,4.62c1.14,0.74,1.08,1.25,0.59,2.47 c-0.51,1.28-0.93,2.59-1.25,3.92c-0.44,1.86-1.34,5.14-0.4,6.93c1.16,2.23,3.65,1.11,5.37,0.35c2.37-1.05,4.49-2.47,6.49-4.1 c1.2-0.97,1.67-0.56,2.78,0.35c1.06,0.86,2.17,1.65,3.35,2.35c1.59,0.95,4.49,2.84,6.43,2.36c2.4-0.58,2-3.33,1.8-5.2 c-0.29-2.64-1.16-4.97-1.98-7.47c-0.5-1.54,0.7-1.87,1.83-2.64c1.09-0.73,2.12-1.54,3.09-2.42c1.41-1.28,4.24-3.58,3.84-5.73 c-0.45-2.42-4.05-2.66-6-2.93c-1.34-0.19-2.68-0.26-4.03-0.24C8.93-7.54,6.7-6.89,6.38-8.33z"></path>
<animateTransform attributeName="transform" type="rotate" dur="0.5988023952095808s" repeatCount="indefinite" keyTimes="0;0.5;1" calcMode="spline" keySplines="0.4 0 0.6 1;0.4 0 0.6 1" begin="-0.5670292068923377s" values="-10;10;-10"></animateTransform>
</g>
</g><g transform="translate(749.9031662979781 457.65155402749474) rotate(314.1323787332974) scale(0.1830599819436791)">
<g>
<path fill="#fbfaf5" d="M6.38-8.33C5.84-10.74,5-13.08,3.83-15.26c-0.85-1.58-1.98-4.16-4.16-3.86c-1.93,0.26-3.02,2.91-3.79,4.44 c-0.51,1-0.95,2.03-1.32,3.09c-0.37,1.06-0.47,2.86-1.16,3.72c-0.67,0.83-2.16,0.35-3.08,0.33c-1.36-0.03-2.71,0.04-4.06,0.21 c-1.72,0.22-4.81,0.42-5.85,2.03c-1.25,1.94,0.7,3.8,1.93,5.13c1.68,1.82,3.6,3.27,5.67,4.62c1.14,0.74,1.08,1.25,0.59,2.47 c-0.51,1.28-0.93,2.59-1.25,3.92c-0.44,1.86-1.34,5.14-0.4,6.93c1.16,2.23,3.65,1.11,5.37,0.35c2.37-1.05,4.49-2.47,6.49-4.1 c1.2-0.97,1.67-0.56,2.78,0.35c1.06,0.86,2.17,1.65,3.35,2.35c1.59,0.95,4.49,2.84,6.43,2.36c2.4-0.58,2-3.33,1.8-5.2 c-0.29-2.64-1.16-4.97-1.98-7.47c-0.5-1.54,0.7-1.87,1.83-2.64c1.09-0.73,2.12-1.54,3.09-2.42c1.41-1.28,4.24-3.58,3.84-5.73 c-0.45-2.42-4.05-2.66-6-2.93c-1.34-0.19-2.68-0.26-4.03-0.24C8.93-7.54,6.7-6.89,6.38-8.33z"></path>
<animateTransform attributeName="transform" type="rotate" dur="0.5988023952095808s" repeatCount="indefinite" keyTimes="0;0.5;1" calcMode="spline" keySplines="0.4 0 0.6 1;0.4 0 0.6 1" begin="-0.5865819381644872s" values="-10;10;-10"></animateTransform>
</g>
</g><g transform="translate(74.71141372375563 62.045907415576806) rotate(308.9792798739395) scale(0.1921318074983061)">
<circle cx="0" cy="0" r="5" fill="#fbfaf5"></circle>
<animate attributeName="opacity" dur="0.5988023952095808s" repeatCount="indefinite" keyTimes="0;0.5;1" calcMode="spline" keySplines="0.2 0 0.8 1;0.2 0 0.8 1" begin="-0.1515336673591592s" values="1;0.5;1"></animate>
</g><g transform="translate(221.94580732904805 406.2096975420782) rotate(211.88182623313676) scale(0.21862646730396815)">
<circle cx="0" cy="0" r="5" fill="#ffd391"></circle>
<animate attributeName="opacity" dur="0.5988023952095808s" repeatCount="indefinite" keyTimes="0;0.5;1" calcMode="spline" keySplines="0.2 0 0.8 1;0.2 0 0.8 1" begin="-0.15642185017719662s" values="1;0.5;1"></animate>
</g><g transform="translate(121.33250514662447 210.48026232304588) rotate(61.53762070286981) scale(0.16445747970011837)">
<circle cx="0" cy="0" r="5" fill="#ffd391"></circle>
<animate attributeName="opacity" dur="0.5988023952095808s" repeatCount="indefinite" keyTimes="0;0.5;1" calcMode="spline" keySplines="0.2 0 0.8 1;0.2 0 0.8 1" begin="-0.16131003299523403s" values="1;0.5;1"></animate>
</g><g transform="translate(574.7758671125931 261.0824909194393) rotate(20.0397657132346) scale(0.17708263197065235)">
<circle cx="0" cy="0" r="5" fill="#ffd391"></circle>
<animate attributeName="opacity" dur="0.5988023952095808s" repeatCount="indefinite" keyTimes="0;0.5;1" calcMode="spline" keySplines="0.2 0 0.8 1;0.2 0 0.8 1" begin="-0.1661982158132714s" values="1;0.5;1"></animate>
</g><g transform="translate(7.660741640283961 190.51744041910362) rotate(278.3250964126868) scale(0.1694478737521551)">
<circle cx="0" cy="0" r="5" fill="#fbfaf5"></circle>
<animate attributeName="opacity" dur="0.5988023952095808s" repeatCount="indefinite" keyTimes="0;0.5;1" calcMode="spline" keySplines="0.2 0 0.8 1;0.2 0 0.8 1" begin="-0.17108639863130878s" values="1;0.5;1"></animate>
</g><g transform="translate(263.5079561982175 336.9297350949367) rotate(281.9317252870695) scale(0.2290659445571682)">
<circle cx="0" cy="0" r="5" fill="#fbfaf5"></circle>
<animate attributeName="opacity" dur="0.5988023952095808s" repeatCount="indefinite" keyTimes="0;0.5;1" calcMode="spline" keySplines="0.2 0 0.8 1;0.2 0 0.8 1" begin="-0.1759745814493462s" values="1;0.5;1"></animate>
</g><g transform="translate(668.1716449680216 63.42250724385357) rotate(132.0864867817207) scale(0.17647360427135433)">
<circle cx="0" cy="0" r="5" fill="#ffd391"></circle>
<animate attributeName="opacity" dur="0.5988023952095808s" repeatCount="indefinite" keyTimes="0;0.5;1" calcMode="spline" keySplines="0.2 0 0.8 1;0.2 0 0.8 1" begin="-0.1808627642673836s" values="1;0.5;1"></animate>
</g><g transform="translate(434.7750657612813 411.8520336435103) rotate(92.85422065554735) scale(0.23136821314581074)">
<circle cx="0" cy="0" r="5" fill="#ffd391"></circle>
<animate attributeName="opacity" dur="0.5988023952095808s" repeatCount="indefinite" keyTimes="0;0.5;1" calcMode="spline" keySplines="0.2 0 0.8 1;0.2 0 0.8 1" begin="-0.18575094708542098s" values="1;0.5;1"></animate>
</g><g transform="translate(62.70540885558237 142.7933291380937) rotate(2.5534686283506236) scale(0.22615466456487804)">
<circle cx="0" cy="0" r="5" fill="#fbfaf5"></circle>
<animate attributeName="opacity" dur="0.5988023952095808s" repeatCount="indefinite" keyTimes="0;0.5;1" calcMode="spline" keySplines="0.2 0 0.8 1;0.2 0 0.8 1" begin="-0.19063912990345835s" values="1;0.5;1"></animate>
</g><g transform="translate(466.910351359925 40.72736152023851) rotate(216.77365850904164) scale(0.16388250619677688)">
<circle cx="0" cy="0" r="5" fill="#ffd391"></circle>
<animate attributeName="opacity" dur="0.5988023952095808s" repeatCount="indefinite" keyTimes="0;0.5;1" calcMode="spline" keySplines="0.2 0 0.8 1;0.2 0 0.8 1" begin="-0.19552731272149576s" values="1;0.5;1"></animate>
</g><g transform="translate(270.25606858343656 373.1905646420938) rotate(218.05810461798998) scale(0.18150557758141206)">
<circle cx="0" cy="0" r="5" fill="#fbfaf5"></circle>
<animate attributeName="opacity" dur="0.5988023952095808s" repeatCount="indefinite" keyTimes="0;0.5;1" calcMode="spline" keySplines="0.2 0 0.8 1;0.2 0 0.8 1" begin="-0.20041549553953317s" values="1;0.5;1"></animate>
</g><g transform="translate(515.2540463809074 476.9458337628846) rotate(88.06024048162162) scale(0.20684720219944783)">
<circle cx="0" cy="0" r="5" fill="#fbfaf5"></circle>
<animate attributeName="opacity" dur="0.5988023952095808s" repeatCount="indefinite" keyTimes="0;0.5;1" calcMode="spline" keySplines="0.2 0 0.8 1;0.2 0 0.8 1" begin="-0.20530367835757057s" values="1;0.5;1"></animate>
</g><g transform="translate(612.1070688410779 101.67546890823004) rotate(264.9313002419732) scale(0.21941646411342253)">
<circle cx="0" cy="0" r="5" fill="#ffd391"></circle>
<animate attributeName="opacity" dur="0.5988023952095808s" repeatCount="indefinite" keyTimes="0;0.5;1" calcMode="spline" keySplines="0.2 0 0.8 1;0.2 0 0.8 1" begin="-0.21019186117560795s" values="1;0.5;1"></animate>
</g><g transform="translate(32.126064981628325 449.08684061263233) rotate(18.51626630771232) scale(0.2263685991239828)">
<circle cx="0" cy="0" r="5" fill="#ffd391"></circle>
<animate attributeName="opacity" dur="0.5988023952095808s" repeatCount="indefinite" keyTimes="0;0.5;1" calcMode="spline" keySplines="0.2 0 0.8 1;0.2 0 0.8 1" begin="-0.21508004399364533s" values="1;0.5;1"></animate>
</g><g transform="translate(202.59845681592859 340.46529002619917) rotate(181.10410479747387) scale(0.20354749939559388)">
<circle cx="0" cy="0" r="5" fill="#ffd391"></circle>
<animate attributeName="opacity" dur="0.5988023952095808s" repeatCount="indefinite" keyTimes="0;0.5;1" calcMode="spline" keySplines="0.2 0 0.8 1;0.2 0 0.8 1" begin="-0.21996822681168274s" values="1;0.5;1"></animate>
</g><g transform="translate(153.54792259242777 26.141028383939616) rotate(22.18648358184287) scale(0.17516905999316792)">
<circle cx="0" cy="0" r="5" fill="#fbfaf5"></circle>
<animate attributeName="opacity" dur="0.5988023952095808s" repeatCount="indefinite" keyTimes="0;0.5;1" calcMode="spline" keySplines="0.2 0 0.8 1;0.2 0 0.8 1" begin="-0.22485640962972014s" values="1;0.5;1"></animate>
</g><g transform="translate(460.62026927372756 240.5624556430283) rotate(19.55960916161643) scale(0.23352809258952498)">
<circle cx="0" cy="0" r="5" fill="#ffd391"></circle>
<animate attributeName="opacity" dur="0.5988023952095808s" repeatCount="indefinite" keyTimes="0;0.5;1" calcMode="spline" keySplines="0.2 0 0.8 1;0.2 0 0.8 1" begin="-0.22974459244775752s" values="1;0.5;1"></animate>
</g><g transform="translate(592.3550747517173 2.7894078940522524) rotate(70.11359466539221) scale(0.1980439076485)">
<circle cx="0" cy="0" r="5" fill="#fbfaf5"></circle>
<animate attributeName="opacity" dur="0.5988023952095808s" repeatCount="indefinite" keyTimes="0;0.5;1" calcMode="spline" keySplines="0.2 0 0.8 1;0.2 0 0.8 1" begin="-0.23463277526579493s" values="1;0.5;1"></animate>
</g><g transform="translate(586.7929955618133 114.18625522020024) rotate(171.75316177312766) scale(0.19418293693348043)">
<circle cx="0" cy="0" r="5" fill="#fbfaf5"></circle>
<animate attributeName="opacity" dur="0.5988023952095808s" repeatCount="indefinite" keyTimes="0;0.5;1" calcMode="spline" keySplines="0.2 0 0.8 1;0.2 0 0.8 1" begin="-0.2395209580838323s" values="1;0.5;1"></animate>
</g><g transform="translate(13.762304842335777 309.3066146886346) rotate(239.75040192832566) scale(0.21483432621692156)">
<circle cx="0" cy="0" r="5" fill="#ffd391"></circle>
<animate attributeName="opacity" dur="0.5988023952095808s" repeatCount="indefinite" keyTimes="0;0.5;1" calcMode="spline" keySplines="0.2 0 0.8 1;0.2 0 0.8 1" begin="-0.24440914090186971s" values="1;0.5;1"></animate>
</g><g transform="translate(298.1469763179699 365.97178164986656) rotate(171.94612286682244) scale(0.1994069340324777)">
<circle cx="0" cy="0" r="5" fill="#fbfaf5"></circle>
<animate attributeName="opacity" dur="0.5988023952095808s" repeatCount="indefinite" keyTimes="0;0.5;1" calcMode="spline" keySplines="0.2 0 0.8 1;0.2 0 0.8 1" begin="-0.2492973237199071s" values="1;0.5;1"></animate>
</g><g transform="translate(637.8653819247083 355.3408545942452) rotate(266.2452029660317) scale(0.21589233320793894)">
<circle cx="0" cy="0" r="5" fill="#ffd391"></circle>
<animate attributeName="opacity" dur="0.5988023952095808s" repeatCount="indefinite" keyTimes="0;0.5;1" calcMode="spline" keySplines="0.2 0 0.8 1;0.2 0 0.8 1" begin="-0.25418550653794453s" values="1;0.5;1"></animate>
</g><g transform="translate(279.57090540803534 16.60962571723789) rotate(248.73380240859078) scale(0.22865607516016484)">
<circle cx="0" cy="0" r="5" fill="#ffd391"></circle>
<animate attributeName="opacity" dur="0.5988023952095808s" repeatCount="indefinite" keyTimes="0;0.5;1" calcMode="spline" keySplines="0.2 0 0.8 1;0.2 0 0.8 1" begin="-0.25907368935598185s" values="1;0.5;1"></animate>
</g><g transform="translate(327.84992314196575 38.51780832226045) rotate(169.62231499591556) scale(0.22075935697032703)">
<circle cx="0" cy="0" r="5" fill="#fbfaf5"></circle>
<animate attributeName="opacity" dur="0.5988023952095808s" repeatCount="indefinite" keyTimes="0;0.5;1" calcMode="spline" keySplines="0.2 0 0.8 1;0.2 0 0.8 1" begin="-0.2639618721740193s" values="1;0.5;1"></animate>
</g><g transform="translate(220.1425898386018 15.926561809878967) rotate(68.26062261644171) scale(0.16927821188977843)">
<circle cx="0" cy="0" r="5" fill="#fbfaf5"></circle>
<animate attributeName="opacity" dur="0.5988023952095808s" repeatCount="indefinite" keyTimes="0;0.5;1" calcMode="spline" keySplines="0.2 0 0.8 1;0.2 0 0.8 1" begin="-0.26885005499205666s" values="1;0.5;1"></animate>
</g><g transform="translate(367.7889547547779 184.95574450479583) rotate(35.505411865468915) scale(0.21731620679395586)">
<circle cx="0" cy="0" r="5" fill="#ffd391"></circle>
<animate attributeName="opacity" dur="0.5988023952095808s" repeatCount="indefinite" keyTimes="0;0.5;1" calcMode="spline" keySplines="0.2 0 0.8 1;0.2 0 0.8 1" begin="-0.2737382378100941s" values="1;0.5;1"></animate>
</g><g transform="translate(342.9455242891391 460.4123160029211) rotate(262.8056172290745) scale(0.17180105073071308)">
<circle cx="0" cy="0" r="5" fill="#fbfaf5"></circle>
<animate attributeName="opacity" dur="0.5988023952095808s" repeatCount="indefinite" keyTimes="0;0.5;1" calcMode="spline" keySplines="0.2 0 0.8 1;0.2 0 0.8 1" begin="-0.2786264206281315s" values="1;0.5;1"></animate>
</g><g transform="translate(121.49220666413382 130.6813309794041) rotate(189.09524660489984) scale(0.22466485324921276)">
<circle cx="0" cy="0" r="5" fill="#fbfaf5"></circle>
<animate attributeName="opacity" dur="0.5988023952095808s" repeatCount="indefinite" keyTimes="0;0.5;1" calcMode="spline" keySplines="0.2 0 0.8 1;0.2 0 0.8 1" begin="-0.28351460344616886s" values="1;0.5;1"></animate>
</g><g transform="translate(580.7410025556251 270.66250522375975) rotate(224.4484920305795) scale(0.16603000820531516)">
<circle cx="0" cy="0" r="5" fill="#ffd391"></circle>
<animate attributeName="opacity" dur="0.5988023952095808s" repeatCount="indefinite" keyTimes="0;0.5;1" calcMode="spline" keySplines="0.2 0 0.8 1;0.2 0 0.8 1" begin="-0.2884027862642063s" values="1;0.5;1"></animate>
</g><g transform="translate(327.906892485905 311.03697386834017) rotate(295.5902843210959) scale(0.16412878364337954)">
<circle cx="0" cy="0" r="5" fill="#fbfaf5"></circle>
<animate attributeName="opacity" dur="0.5988023952095808s" repeatCount="indefinite" keyTimes="0;0.5;1" calcMode="spline" keySplines="0.2 0 0.8 1;0.2 0 0.8 1" begin="-0.2932909690822436s" values="1;0.5;1"></animate>
</g><g transform="translate(375.5839180519833 472.3968979878527) rotate(325.09665293465184) scale(0.18562533601761183)">
<circle cx="0" cy="0" r="5" fill="#ffd391"></circle>
<animate attributeName="opacity" dur="0.5988023952095808s" repeatCount="indefinite" keyTimes="0;0.5;1" calcMode="spline" keySplines="0.2 0 0.8 1;0.2 0 0.8 1" begin="-0.29817915190028105s" values="1;0.5;1"></animate>
</g><g transform="translate(575.616988164763 493.0446313669351) rotate(164.22322700824165) scale(0.21856098545552718)">
<circle cx="0" cy="0" r="5" fill="#fbfaf5"></circle>
<animate attributeName="opacity" dur="0.5988023952095808s" repeatCount="indefinite" keyTimes="0;0.5;1" calcMode="spline" keySplines="0.2 0 0.8 1;0.2 0 0.8 1" begin="-0.3030673347183184s" values="1;0.5;1"></animate>
</g><g transform="translate(69.48034072659857 272.5364929244071) rotate(186.12044613756686) scale(0.18744105825815408)">
<circle cx="0" cy="0" r="5" fill="#fbfaf5"></circle>
<animate attributeName="opacity" dur="0.5988023952095808s" repeatCount="indefinite" keyTimes="0;0.5;1" calcMode="spline" keySplines="0.2 0 0.8 1;0.2 0 0.8 1" begin="-0.3079555175363558s" values="1;0.5;1"></animate>
</g><g transform="translate(251.82025780789888 393.41954635119254) rotate(315.2208390191226) scale(0.18591648864473245)">
<circle cx="0" cy="0" r="5" fill="#ffd391"></circle>
<animate attributeName="opacity" dur="0.5988023952095808s" repeatCount="indefinite" keyTimes="0;0.5;1" calcMode="spline" keySplines="0.2 0 0.8 1;0.2 0 0.8 1" begin="-0.31284370035439324s" values="1;0.5;1"></animate>
</g><g transform="translate(507.58156941784506 381.2335782272588) rotate(300.6904970470964) scale(0.17648574162792577)">
<circle cx="0" cy="0" r="5" fill="#fbfaf5"></circle>
<animate attributeName="opacity" dur="0.5988023952095808s" repeatCount="indefinite" keyTimes="0;0.5;1" calcMode="spline" keySplines="0.2 0 0.8 1;0.2 0 0.8 1" begin="-0.3177318831724306s" values="1;0.5;1"></animate>
</g><g transform="translate(55.91728133252092 404.03354522199623) rotate(179.01966823252025) scale(0.2257359962410164)">
<circle cx="0" cy="0" r="5" fill="#ffd391"></circle>
<animate attributeName="opacity" dur="0.5988023952095808s" repeatCount="indefinite" keyTimes="0;0.5;1" calcMode="spline" keySplines="0.2 0 0.8 1;0.2 0 0.8 1" begin="-0.32262006599046805s" values="1;0.5;1"></animate>
</g><g transform="translate(727.4035439765225 92.1022838808354) rotate(111.21538400979601) scale(0.2062554846876021)">
<circle cx="0" cy="0" r="5" fill="#ffd391"></circle>
<animate attributeName="opacity" dur="0.5988023952095808s" repeatCount="indefinite" keyTimes="0;0.5;1" calcMode="spline" keySplines="0.2 0 0.8 1;0.2 0 0.8 1" begin="-0.32750824880850543s" values="1;0.5;1"></animate>
</g><g transform="translate(494.343755947582 443.47890617172897) rotate(158.7646549906874) scale(0.2044695097723059)">
<circle cx="0" cy="0" r="5" fill="#ffd391"></circle>
<animate attributeName="opacity" dur="0.5988023952095808s" repeatCount="indefinite" keyTimes="0;0.5;1" calcMode="spline" keySplines="0.2 0 0.8 1;0.2 0 0.8 1" begin="-0.3323964316265428s" values="1;0.5;1"></animate>
</g><g transform="translate(757.6706368388882 392.3765708786362) rotate(285.48811120953985) scale(0.2349222874054589)">
<circle cx="0" cy="0" r="5" fill="#fbfaf5"></circle>
<animate attributeName="opacity" dur="0.5988023952095808s" repeatCount="indefinite" keyTimes="0;0.5;1" calcMode="spline" keySplines="0.2 0 0.8 1;0.2 0 0.8 1" begin="-0.3372846144445802s" values="1;0.5;1"></animate>
</g><g transform="translate(573.8065517154062 285.52205686919547) rotate(13.469649318228294) scale(0.23419604168324926)">
<circle cx="0" cy="0" r="5" fill="#fbfaf5"></circle>
<animate attributeName="opacity" dur="0.5988023952095808s" repeatCount="indefinite" keyTimes="0;0.5;1" calcMode="spline" keySplines="0.2 0 0.8 1;0.2 0 0.8 1" begin="-0.34217279726261757s" values="1;0.5;1"></animate>
</g><g transform="translate(106.61587801828502 494.2672604262213) rotate(19.002074510386887) scale(0.20121907455272942)">
<circle cx="0" cy="0" r="5" fill="#fbfaf5"></circle>
<animate attributeName="opacity" dur="0.5988023952095808s" repeatCount="indefinite" keyTimes="0;0.5;1" calcMode="spline" keySplines="0.2 0 0.8 1;0.2 0 0.8 1" begin="-0.34706098008065495s" values="1;0.5;1"></animate>
</g><g transform="translate(0.0015393225509585662 485.44413982649155) rotate(321.46726695724885) scale(0.16332943089878033)">
<circle cx="0" cy="0" r="5" fill="#fbfaf5"></circle>
<animate attributeName="opacity" dur="0.5988023952095808s" repeatCount="indefinite" keyTimes="0;0.5;1" calcMode="spline" keySplines="0.2 0 0.8 1;0.2 0 0.8 1" begin="-0.3519491628986924s" values="1;0.5;1"></animate>
</g><g transform="translate(128.93525369816854 285.19500114369987) rotate(331.11372139032005) scale(0.215559367236309)">
<circle cx="0" cy="0" r="5" fill="#ffd391"></circle>
<animate attributeName="opacity" dur="0.5988023952095808s" repeatCount="indefinite" keyTimes="0;0.5;1" calcMode="spline" keySplines="0.2 0 0.8 1;0.2 0 0.8 1" begin="-0.35683734571672976s" values="1;0.5;1"></animate>
</g><g transform="translate(437.662385152279 244.8339432193728) rotate(331.57758189190025) scale(0.23297999631753888)">
<circle cx="0" cy="0" r="5" fill="#fbfaf5"></circle>
<animate attributeName="opacity" dur="0.5988023952095808s" repeatCount="indefinite" keyTimes="0;0.5;1" calcMode="spline" keySplines="0.2 0 0.8 1;0.2 0 0.8 1" begin="-0.3617255285347672s" values="1;0.5;1"></animate>
</g><g transform="translate(489.3635059771915 454.6210690435238) rotate(273.94727261070994) scale(0.16557664927503113)">
<circle cx="0" cy="0" r="5" fill="#ffd391"></circle>
<animate attributeName="opacity" dur="0.5988023952095808s" repeatCount="indefinite" keyTimes="0;0.5;1" calcMode="spline" keySplines="0.2 0 0.8 1;0.2 0 0.8 1" begin="-0.36661371135280457s" values="1;0.5;1"></animate>
</g><g transform="translate(586.321282804694 125.06199570796727) rotate(325.43728036638277) scale(0.21380581893573916)">
<circle cx="0" cy="0" r="5" fill="#ffd391"></circle>
<animate attributeName="opacity" dur="0.5988023952095808s" repeatCount="indefinite" keyTimes="0;0.5;1" calcMode="spline" keySplines="0.2 0 0.8 1;0.2 0 0.8 1" begin="-0.37150189417084195s" values="1;0.5;1"></animate>
</g><g transform="translate(690.653797660307 338.246102552469) rotate(288.3918906244836) scale(0.21538299677084993)">
<circle cx="0" cy="0" r="5" fill="#fbfaf5"></circle>
<animate attributeName="opacity" dur="0.5988023952095808s" repeatCount="indefinite" keyTimes="0;0.5;1" calcMode="spline" keySplines="0.2 0 0.8 1;0.2 0 0.8 1" begin="-0.3763900769888794s" values="1;0.5;1"></animate>
</g><g transform="translate(740.9255368578977 100.81970092808761) rotate(328.27881585998045) scale(0.16932050265453352)">
<circle cx="0" cy="0" r="5" fill="#ffd391"></circle>
<animate attributeName="opacity" dur="0.5988023952095808s" repeatCount="indefinite" keyTimes="0;0.5;1" calcMode="spline" keySplines="0.2 0 0.8 1;0.2 0 0.8 1" begin="-0.3812782598069167s" values="1;0.5;1"></animate>
</g><g transform="translate(22.038462735469395 416.56092625931177) rotate(348.9107848105948) scale(0.2400258668821976)">
<circle cx="0" cy="0" r="5" fill="#ffd391"></circle>
<animate attributeName="opacity" dur="0.5988023952095808s" repeatCount="indefinite" keyTimes="0;0.5;1" calcMode="spline" keySplines="0.2 0 0.8 1;0.2 0 0.8 1" begin="-0.38616644262495414s" values="1;0.5;1"></animate>
</g><g transform="translate(447.9293517239771 138.00838169907547) rotate(297.33089069712867) scale(0.18219458516042653)">
<circle cx="0" cy="0" r="5" fill="#fbfaf5"></circle>
<animate attributeName="opacity" dur="0.5988023952095808s" repeatCount="indefinite" keyTimes="0;0.5;1" calcMode="spline" keySplines="0.2 0 0.8 1;0.2 0 0.8 1" begin="-0.3910546254429915s" values="1;0.5;1"></animate>
</g><g transform="translate(392.02504557683767 419.8351781245382) rotate(168.056187234045) scale(0.23062063069870123)">
<circle cx="0" cy="0" r="5" fill="#fbfaf5"></circle>
<animate attributeName="opacity" dur="0.5988023952095808s" repeatCount="indefinite" keyTimes="0;0.5;1" calcMode="spline" keySplines="0.2 0 0.8 1;0.2 0 0.8 1" begin="-0.3959428082610289s" values="1;0.5;1"></animate>
</g><g transform="translate(351.0283770464815 312.03216624296414) rotate(160.13592164970407) scale(0.16394815711564242)">
<circle cx="0" cy="0" r="5" fill="#fbfaf5"></circle>
<animate attributeName="opacity" dur="0.5988023952095808s" repeatCount="indefinite" keyTimes="0;0.5;1" calcMode="spline" keySplines="0.2 0 0.8 1;0.2 0 0.8 1" begin="-0.40083099107906633s" values="1;0.5;1"></animate>
</g><g transform="translate(698.307825306581 102.80081789845423) rotate(31.739586184564942) scale(0.23211725193666735)">
<circle cx="0" cy="0" r="5" fill="#fbfaf5"></circle>
<animate attributeName="opacity" dur="0.5988023952095808s" repeatCount="indefinite" keyTimes="0;0.5;1" calcMode="spline" keySplines="0.2 0 0.8 1;0.2 0 0.8 1" begin="-0.4057191738971037s" values="1;0.5;1"></animate>
</g><g transform="translate(153.31431821525965 497.6888321370165) rotate(3.667387589830313) scale(0.2013975783500564)">
<circle cx="0" cy="0" r="5" fill="#fbfaf5"></circle>
<animate attributeName="opacity" dur="0.5988023952095808s" repeatCount="indefinite" keyTimes="0;0.5;1" calcMode="spline" keySplines="0.2 0 0.8 1;0.2 0 0.8 1" begin="-0.41060735671514115s" values="1;0.5;1"></animate>
</g><g transform="translate(374.8066974095159 341.6540915618647) rotate(236.99372038571826) scale(0.2166748347110064)">
<circle cx="0" cy="0" r="5" fill="#fbfaf5"></circle>
<animate attributeName="opacity" dur="0.5988023952095808s" repeatCount="indefinite" keyTimes="0;0.5;1" calcMode="spline" keySplines="0.2 0 0.8 1;0.2 0 0.8 1" begin="-0.4154955395331785s" values="1;0.5;1"></animate>
</g><g transform="translate(494.5566395345889 296.9333897016503) rotate(306.5183065334778) scale(0.23108288396384966)">
<circle cx="0" cy="0" r="5" fill="#ffd391"></circle>
<animate attributeName="opacity" dur="0.5988023952095808s" repeatCount="indefinite" keyTimes="0;0.5;1" calcMode="spline" keySplines="0.2 0 0.8 1;0.2 0 0.8 1" begin="-0.4203837223512159s" values="1;0.5;1"></animate>
</g><g transform="translate(492.6573283184718 126.754163648069) rotate(44.96504928203015) scale(0.16731814972261486)">
<circle cx="0" cy="0" r="5" fill="#ffd391"></circle>
<animate attributeName="opacity" dur="0.5988023952095808s" repeatCount="indefinite" keyTimes="0;0.5;1" calcMode="spline" keySplines="0.2 0 0.8 1;0.2 0 0.8 1" begin="0s" values="1;0.5;1"></animate>
</g><g transform="translate(411.1893812056172 116.62188023269623) rotate(285.9914941240527) scale(0.19615939017524903)">
<circle cx="0" cy="0" r="5" fill="#fbfaf5"></circle>
<animate attributeName="opacity" dur="0.5988023952095808s" repeatCount="indefinite" keyTimes="0;0.5;1" calcMode="spline" keySplines="0.2 0 0.8 1;0.2 0 0.8 1" begin="-0.43016008798729066s" values="1;0.5;1"></animate>
</g><g transform="translate(543.196692977243 341.63334834009396) rotate(189.7858957951031) scale(0.21490533248752736)">
<circle cx="0" cy="0" r="5" fill="#fbfaf5"></circle>
<animate attributeName="opacity" dur="0.5988023952095808s" repeatCount="indefinite" keyTimes="0;0.5;1" calcMode="spline" keySplines="0.2 0 0.8 1;0.2 0 0.8 1" begin="-0.43504827080532804s" values="1;0.5;1"></animate>
</g><g transform="translate(38.81065779290351 374.9752158688109) rotate(110.46111832273337) scale(0.17591285098890547)">
<circle cx="0" cy="0" r="5" fill="#fbfaf5"></circle>
<animate attributeName="opacity" dur="0.5988023952095808s" repeatCount="indefinite" keyTimes="0;0.5;1" calcMode="spline" keySplines="0.2 0 0.8 1;0.2 0 0.8 1" begin="-0.4399364536233655s" values="1;0.5;1"></animate>
</g><g transform="translate(245.97349041905517 245.73275958846142) rotate(117.3688325476015) scale(0.194140412991346)">
<circle cx="0" cy="0" r="5" fill="#ffd391"></circle>
<animate attributeName="opacity" dur="0.5988023952095808s" repeatCount="indefinite" keyTimes="0;0.5;1" calcMode="spline" keySplines="0.2 0 0.8 1;0.2 0 0.8 1" begin="-0.44482463644140285s" values="1;0.5;1"></animate>
</g><g transform="translate(627.9082930529419 123.55155648048375) rotate(86.41029382198437) scale(0.20881899050449493)">
<circle cx="0" cy="0" r="5" fill="#fbfaf5"></circle>
<animate attributeName="opacity" dur="0.5988023952095808s" repeatCount="indefinite" keyTimes="0;0.5;1" calcMode="spline" keySplines="0.2 0 0.8 1;0.2 0 0.8 1" begin="-0.4497128192594403s" values="1;0.5;1"></animate>
</g><g transform="translate(147.73872122189195 286.40866258022015) rotate(139.72779125049277) scale(0.21383325617610813)">
<circle cx="0" cy="0" r="5" fill="#fbfaf5"></circle>
<animate attributeName="opacity" dur="0.5988023952095808s" repeatCount="indefinite" keyTimes="0;0.5;1" calcMode="spline" keySplines="0.2 0 0.8 1;0.2 0 0.8 1" begin="-0.45460100207747767s" values="1;0.5;1"></animate>
</g><g transform="translate(729.3002772748224 22.049771978432574) rotate(215.71625954463133) scale(0.17488017128832276)">
<circle cx="0" cy="0" r="5" fill="#fbfaf5"></circle>
<animate attributeName="opacity" dur="0.5988023952095808s" repeatCount="indefinite" keyTimes="0;0.5;1" calcMode="spline" keySplines="0.2 0 0.8 1;0.2 0 0.8 1" begin="-0.45948918489551505s" values="1;0.5;1"></animate>
</g><g transform="translate(700.288131095959 122.0238493399165) rotate(102.21848055890877) scale(0.1887751427441307)">
<circle cx="0" cy="0" r="5" fill="#fbfaf5"></circle>
<animate attributeName="opacity" dur="0.5988023952095808s" repeatCount="indefinite" keyTimes="0;0.5;1" calcMode="spline" keySplines="0.2 0 0.8 1;0.2 0 0.8 1" begin="-0.4643773677135525s" values="1;0.5;1"></animate>
</g><g transform="translate(379.7497720450918 159.85203608044537) rotate(305.37859897646496) scale(0.1904239815925442)">
<circle cx="0" cy="0" r="5" fill="#ffd391"></circle>
<animate attributeName="opacity" dur="0.5988023952095808s" repeatCount="indefinite" keyTimes="0;0.5;1" calcMode="spline" keySplines="0.2 0 0.8 1;0.2 0 0.8 1" begin="-0.46926555053158986s" values="1;0.5;1"></animate>
</g><g transform="translate(587.9105582645244 12.10457734489332) rotate(310.1531543075556) scale(0.16789356823617105)">
<circle cx="0" cy="0" r="5" fill="#fbfaf5"></circle>
<animate attributeName="opacity" dur="0.5988023952095808s" repeatCount="indefinite" keyTimes="0;0.5;1" calcMode="spline" keySplines="0.2 0 0.8 1;0.2 0 0.8 1" begin="-0.47415373334962724s" values="1;0.5;1"></animate>
</g><g transform="translate(193.13209851163725 142.63597223137333) rotate(337.4952452045442) scale(0.22994021148755536)">
<circle cx="0" cy="0" r="5" fill="#fbfaf5"></circle>
<animate attributeName="opacity" dur="0.5988023952095808s" repeatCount="indefinite" keyTimes="0;0.5;1" calcMode="spline" keySplines="0.2 0 0.8 1;0.2 0 0.8 1" begin="-0.4790419161676646s" values="1;0.5;1"></animate>
</g><g transform="translate(614.4076089518825 199.27689438655185) rotate(234.83484791526223) scale(0.230782844850784)">
<circle cx="0" cy="0" r="5" fill="#ffd391"></circle>
<animate attributeName="opacity" dur="0.5988023952095808s" repeatCount="indefinite" keyTimes="0;0.5;1" calcMode="spline" keySplines="0.2 0 0.8 1;0.2 0 0.8 1" begin="-0.483930098985702s" values="1;0.5;1"></animate>
</g><g transform="translate(216.01873687175095 472.00378714608837) rotate(133.8849470139687) scale(0.16402531427928843)">
<circle cx="0" cy="0" r="5" fill="#ffd391"></circle>
<animate attributeName="opacity" dur="0.5988023952095808s" repeatCount="indefinite" keyTimes="0;0.5;1" calcMode="spline" keySplines="0.2 0 0.8 1;0.2 0 0.8 1" begin="-0.48881828180373943s" values="1;0.5;1"></animate>
</g><g transform="translate(140.1496012816015 47.99549692184274) rotate(260.92045415777125) scale(0.18965940048203497)">
<circle cx="0" cy="0" r="5" fill="#ffd391"></circle>
<animate attributeName="opacity" dur="0.5988023952095808s" repeatCount="indefinite" keyTimes="0;0.5;1" calcMode="spline" keySplines="0.2 0 0.8 1;0.2 0 0.8 1" begin="-0.4937064646217768s" values="1;0.5;1"></animate>
</g><g transform="translate(123.06936325736876 425.0746235160778) rotate(0.5132152292312808) scale(0.2421276429298134)">
<circle cx="0" cy="0" r="5" fill="#ffd391"></circle>
<animate attributeName="opacity" dur="0.5988023952095808s" repeatCount="indefinite" keyTimes="0;0.5;1" calcMode="spline" keySplines="0.2 0 0.8 1;0.2 0 0.8 1" begin="-0.4985946474398142s" values="1;0.5;1"></animate>
</g><g transform="translate(278.62931343997445 295.14649995480715) rotate(110.53989492758937) scale(0.1845009226257544)">
<circle cx="0" cy="0" r="5" fill="#fbfaf5"></circle>
<animate attributeName="opacity" dur="0.5988023952095808s" repeatCount="indefinite" keyTimes="0;0.5;1" calcMode="spline" keySplines="0.2 0 0.8 1;0.2 0 0.8 1" begin="-0.5034828302578516s" values="1;0.5;1"></animate>
</g><g transform="translate(139.69064472492587 474.4444160290347) rotate(80.0051328046856) scale(0.19063592282617375)">
<circle cx="0" cy="0" r="5" fill="#fbfaf5"></circle>
<animate attributeName="opacity" dur="0.5988023952095808s" repeatCount="indefinite" keyTimes="0;0.5;1" calcMode="spline" keySplines="0.2 0 0.8 1;0.2 0 0.8 1" begin="-0.5083710130758891s" values="1;0.5;1"></animate>
</g><g transform="translate(402.1501294913408 452.82403138856387) rotate(10.38620018921598) scale(0.17284483697074876)">
<circle cx="0" cy="0" r="5" fill="#ffd391"></circle>
<animate attributeName="opacity" dur="0.5988023952095808s" repeatCount="indefinite" keyTimes="0;0.5;1" calcMode="spline" keySplines="0.2 0 0.8 1;0.2 0 0.8 1" begin="-0.5132591958939264s" values="1;0.5;1"></animate>
</g><g transform="translate(472.6212663962761 137.77937713404188) rotate(233.49698116170632) scale(0.1689699870975623)">
<circle cx="0" cy="0" r="5" fill="#ffd391"></circle>
<animate attributeName="opacity" dur="0.5988023952095808s" repeatCount="indefinite" keyTimes="0;0.5;1" calcMode="spline" keySplines="0.2 0 0.8 1;0.2 0 0.8 1" begin="-0.5181473787119637s" values="1;0.5;1"></animate>
</g><g transform="translate(276.2606660942492 425.7285745520549) rotate(199.43362751381923) scale(0.21868320228564458)">
<circle cx="0" cy="0" r="5" fill="#ffd391"></circle>
<animate attributeName="opacity" dur="0.5988023952095808s" repeatCount="indefinite" keyTimes="0;0.5;1" calcMode="spline" keySplines="0.2 0 0.8 1;0.2 0 0.8 1" begin="-0.5230355615300012s" values="1;0.5;1"></animate>
</g><g transform="translate(276.7516075462209 0.26822155975531115) rotate(256.3730820422942) scale(0.17703738246935544)">
<circle cx="0" cy="0" r="5" fill="#fbfaf5"></circle>
<animate attributeName="opacity" dur="0.5988023952095808s" repeatCount="indefinite" keyTimes="0;0.5;1" calcMode="spline" keySplines="0.2 0 0.8 1;0.2 0 0.8 1" begin="-0.5279237443480386s" values="1;0.5;1"></animate>
</g><g transform="translate(544.1855163717357 57.692666627412265) rotate(337.5812697712909) scale(0.2375879250777929)">
<circle cx="0" cy="0" r="5" fill="#fbfaf5"></circle>
<animate attributeName="opacity" dur="0.5988023952095808s" repeatCount="indefinite" keyTimes="0;0.5;1" calcMode="spline" keySplines="0.2 0 0.8 1;0.2 0 0.8 1" begin="-0.5328119271660761s" values="1;0.5;1"></animate>
</g><g transform="translate(291.6866615488137 330.1036131091817) rotate(221.50557800879687) scale(0.18084068771871045)">
<circle cx="0" cy="0" r="5" fill="#ffd391"></circle>
<animate attributeName="opacity" dur="0.5988023952095808s" repeatCount="indefinite" keyTimes="0;0.5;1" calcMode="spline" keySplines="0.2 0 0.8 1;0.2 0 0.8 1" begin="-0.5377001099841133s" values="1;0.5;1"></animate>
</g><g transform="translate(341.4858932737285 214.7444962471596) rotate(153.03049396663738) scale(0.1695599337797121)">
<circle cx="0" cy="0" r="5" fill="#fbfaf5"></circle>
<animate attributeName="opacity" dur="0.5988023952095808s" repeatCount="indefinite" keyTimes="0;0.5;1" calcMode="spline" keySplines="0.2 0 0.8 1;0.2 0 0.8 1" begin="-0.5425882928021507s" values="1;0.5;1"></animate>
</g><g transform="translate(316.01617359710474 468.7634669161874) rotate(240.43009606966027) scale(0.22625889051708173)">
<circle cx="0" cy="0" r="5" fill="#fbfaf5"></circle>
<animate attributeName="opacity" dur="0.5988023952095808s" repeatCount="indefinite" keyTimes="0;0.5;1" calcMode="spline" keySplines="0.2 0 0.8 1;0.2 0 0.8 1" begin="-0.5474764756201882s" values="1;0.5;1"></animate>
</g><g transform="translate(168.46950835452915 323.456048882314) rotate(328.3565897096891) scale(0.19550534544759288)">
<circle cx="0" cy="0" r="5" fill="#ffd391"></circle>
<animate attributeName="opacity" dur="0.5988023952095808s" repeatCount="indefinite" keyTimes="0;0.5;1" calcMode="spline" keySplines="0.2 0 0.8 1;0.2 0 0.8 1" begin="-0.5523646584382255s" values="1;0.5;1"></animate>
</g><g transform="translate(121.75518797302601 401.76801382865375) rotate(17.3981570184404) scale(0.23328048422574482)">
<circle cx="0" cy="0" r="5" fill="#ffd391"></circle>
<animate attributeName="opacity" dur="0.5988023952095808s" repeatCount="indefinite" keyTimes="0;0.5;1" calcMode="spline" keySplines="0.2 0 0.8 1;0.2 0 0.8 1" begin="-0.557252841256263s" values="1;0.5;1"></animate>
</g><g transform="translate(659.9456625876237 71.89714492760629) rotate(100.38714597530227) scale(0.21831246730772774)">
<circle cx="0" cy="0" r="5" fill="#ffd391"></circle>
<animate attributeName="opacity" dur="0.5988023952095808s" repeatCount="indefinite" keyTimes="0;0.5;1" calcMode="spline" keySplines="0.2 0 0.8 1;0.2 0 0.8 1" begin="-0.5621410240743003s" values="1;0.5;1"></animate>
</g><g transform="translate(160.69101525034966 110.02570415195783) rotate(8.004154028331168) scale(0.18398345506883623)">
<circle cx="0" cy="0" r="5" fill="#ffd391"></circle>
<animate attributeName="opacity" dur="0.5988023952095808s" repeatCount="indefinite" keyTimes="0;0.5;1" calcMode="spline" keySplines="0.2 0 0.8 1;0.2 0 0.8 1" begin="-0.5670292068923377s" values="1;0.5;1"></animate>
</g><g transform="translate(509.5628012144378 277.52083609683314) rotate(336.08648877456125) scale(0.2319348325180303)">
<circle cx="0" cy="0" r="5" fill="#ffd391"></circle>
<animate attributeName="opacity" dur="0.5988023952095808s" repeatCount="indefinite" keyTimes="0;0.5;1" calcMode="spline" keySplines="0.2 0 0.8 1;0.2 0 0.8 1" begin="-0.5719173897103751s" values="1;0.5;1"></animate>
</g><g transform="translate(145.28438746774654 360.8446937134114) rotate(359.0961612057154) scale(0.21964039526498308)">
<circle cx="0" cy="0" r="5" fill="#fbfaf5"></circle>
<animate attributeName="opacity" dur="0.5988023952095808s" repeatCount="indefinite" keyTimes="0;0.5;1" calcMode="spline" keySplines="0.2 0 0.8 1;0.2 0 0.8 1" begin="-0.5768055725284126s" values="1;0.5;1"></animate>
</g><g transform="translate(293.7579718857182 91.71914780202093) rotate(295.3081421925198) scale(0.18323612710947115)">
<circle cx="0" cy="0" r="5" fill="#fbfaf5"></circle>
<animate attributeName="opacity" dur="0.5988023952095808s" repeatCount="indefinite" keyTimes="0;0.5;1" calcMode="spline" keySplines="0.2 0 0.8 1;0.2 0 0.8 1" begin="-0.58169375534645s" values="1;0.5;1"></animate>
</g><g transform="translate(753.1848152366161 437.60236885241375) rotate(222.6966648740667) scale(0.23496526672766135)">
<circle cx="0" cy="0" r="5" fill="#ffd391"></circle>
<animate attributeName="opacity" dur="0.5988023952095808s" repeatCount="indefinite" keyTimes="0;0.5;1" calcMode="spline" keySplines="0.2 0 0.8 1;0.2 0 0.8 1" begin="-0.5865819381644872s" values="1;0.5;1"></animate>
</g><g transform="translate(422.1528971380753 495.08117324216795) rotate(21.03733567282958) scale(0.19374788129050458)">
<circle cx="0" cy="0" r="5" fill="#fbfaf5"></circle>
<animate attributeName="opacity" dur="0.5988023952095808s" repeatCount="indefinite" keyTimes="0;0.5;1" calcMode="spline" keySplines="0.2 0 0.8 1;0.2 0 0.8 1" begin="-0.5914701209825247s" values="1;0.5;1"></animate>
</g><g transform="translate(311.1818681336173 161.29811586944578) rotate(356.0699515360011) scale(0.21067232954007173)">
<circle cx="0" cy="0" r="5" fill="#ffd391"></circle>
<animate attributeName="opacity" dur="0.5988023952095808s" repeatCount="indefinite" keyTimes="0;0.5;1" calcMode="spline" keySplines="0.2 0 0.8 1;0.2 0 0.8 1" begin="-0.5963583038005621s" values="1;0.5;1"></animate>
</g><g transform="translate(285.4327302434672 366.10207755561015) rotate(49.36474909054069) scale(0.1994097038237766)">
<circle cx="0" cy="0" r="5" fill="#fbfaf5"></circle>
<animate attributeName="opacity" dur="0.5988023952095808s" repeatCount="indefinite" keyTimes="0;0.5;1" calcMode="spline" keySplines="0.2 0 0.8 1;0.2 0 0.8 1" begin="-0.6012464866185995s" values="1;0.5;1"></animate>
</g><g transform="translate(246.4293969217859 418.28825945755784) rotate(280.9400665825103) scale(0.19751172509419576)">
<circle cx="0" cy="0" r="5" fill="#fbfaf5"></circle>
<animate attributeName="opacity" dur="0.5988023952095808s" repeatCount="indefinite" keyTimes="0;0.5;1" calcMode="spline" keySplines="0.2 0 0.8 1;0.2 0 0.8 1" begin="-0.6061346694366369s" values="1;0.5;1"></animate>
</g><g transform="translate(351.9668689236838 185.86070679664914) rotate(265.4637911935906) scale(0.1771992964227193)">
<circle cx="0" cy="0" r="5" fill="#ffd391"></circle>
<animate attributeName="opacity" dur="0.5988023952095808s" repeatCount="indefinite" keyTimes="0;0.5;1" calcMode="spline" keySplines="0.2 0 0.8 1;0.2 0 0.8 1" begin="-0.6110228522546743s" values="1;0.5;1"></animate>
</g><g transform="translate(462.52462248734014 329.22953937360126) rotate(56.33866720744959) scale(0.24030779170661568)">
<circle cx="0" cy="0" r="5" fill="#ffd391"></circle>
<animate attributeName="opacity" dur="0.5988023952095808s" repeatCount="indefinite" keyTimes="0;0.5;1" calcMode="spline" keySplines="0.2 0 0.8 1;0.2 0 0.8 1" begin="-0.6159110350727116s" values="1;0.5;1"></animate>
</g><g transform="translate(466.8221747569308 118.8200338439569) rotate(306.0438309292732) scale(0.16463469798515126)">
<circle cx="0" cy="0" r="5" fill="#fbfaf5"></circle>
<animate attributeName="opacity" dur="0.5988023952095808s" repeatCount="indefinite" keyTimes="0;0.5;1" calcMode="spline" keySplines="0.2 0 0.8 1;0.2 0 0.8 1" begin="0s" values="1;0.5;1"></animate>
</g><g transform="translate(657.846302553397 263.14577201126235) rotate(77.56043376779417) scale(0.21714273578519175)">
<circle cx="0" cy="0" r="5" fill="#fbfaf5"></circle>
<animate attributeName="opacity" dur="0.5988023952095808s" repeatCount="indefinite" keyTimes="0;0.5;1" calcMode="spline" keySplines="0.2 0 0.8 1;0.2 0 0.8 1" begin="-0.6256874007087865s" values="1;0.5;1"></animate>
</g><g transform="translate(677.3629726348819 126.70512407802647) rotate(48.26918314522366) scale(0.16360492213895875)">
<circle cx="0" cy="0" r="5" fill="#ffd391"></circle>
<animate attributeName="opacity" dur="0.5988023952095808s" repeatCount="indefinite" keyTimes="0;0.5;1" calcMode="spline" keySplines="0.2 0 0.8 1;0.2 0 0.8 1" begin="-0.6305755835268237s" values="1;0.5;1"></animate>
</g></g>
</svg>